%TF.GenerationSoftware,KiCad,Pcbnew,10.0.0*%
%TF.CreationDate,2026-04-05T16:43:01+05:30*%
%TF.ProjectId,2000W_load_control,32303030-575f-46c6-9f61-645f636f6e74,rev?*%
%TF.SameCoordinates,Original*%
%TF.FileFunction,Copper,L1,Top*%
%TF.FilePolarity,Positive*%
%FSLAX46Y46*%
G04 Gerber Fmt 4.6, Leading zero omitted, Abs format (unit mm)*
G04 Created by KiCad (PCBNEW 10.0.0) date 2026-04-05 16:43:01*
%MOMM*%
%LPD*%
G01*
G04 APERTURE LIST*
G04 Aperture macros list*
%AMRoundRect*
0 Rectangle with rounded corners*
0 $1 Rounding radius*
0 $2 $3 $4 $5 $6 $7 $8 $9 X,Y pos of 4 corners*
0 Add a 4 corners polygon primitive as box body*
4,1,4,$2,$3,$4,$5,$6,$7,$8,$9,$2,$3,0*
0 Add four circle primitives for the rounded corners*
1,1,$1+$1,$2,$3*
1,1,$1+$1,$4,$5*
1,1,$1+$1,$6,$7*
1,1,$1+$1,$8,$9*
0 Add four rect primitives between the rounded corners*
20,1,$1+$1,$2,$3,$4,$5,0*
20,1,$1+$1,$4,$5,$6,$7,0*
20,1,$1+$1,$6,$7,$8,$9,0*
20,1,$1+$1,$8,$9,$2,$3,0*%
G04 Aperture macros list end*
%TA.AperFunction,ComponentPad*%
%ADD10RoundRect,0.250000X-0.550000X-0.550000X0.550000X-0.550000X0.550000X0.550000X-0.550000X0.550000X0*%
%TD*%
%TA.AperFunction,ComponentPad*%
%ADD11C,1.600000*%
%TD*%
%TA.AperFunction,SMDPad,CuDef*%
%ADD12RoundRect,0.250000X-0.262500X-0.450000X0.262500X-0.450000X0.262500X0.450000X-0.262500X0.450000X0*%
%TD*%
%TA.AperFunction,ComponentPad*%
%ADD13C,1.700000*%
%TD*%
%TA.AperFunction,ComponentPad*%
%ADD14R,1.700000X1.700000*%
%TD*%
%TA.AperFunction,SMDPad,CuDef*%
%ADD15RoundRect,0.250000X-0.850000X-0.350000X0.850000X-0.350000X0.850000X0.350000X-0.850000X0.350000X0*%
%TD*%
%TA.AperFunction,SMDPad,CuDef*%
%ADD16RoundRect,0.249997X-2.950003X-2.650003X2.950003X-2.650003X2.950003X2.650003X-2.950003X2.650003X0*%
%TD*%
%TA.AperFunction,SMDPad,CuDef*%
%ADD17RoundRect,0.250000X-0.312500X-1.450000X0.312500X-1.450000X0.312500X1.450000X-0.312500X1.450000X0*%
%TD*%
%TA.AperFunction,SMDPad,CuDef*%
%ADD18RoundRect,0.075000X-0.075000X-0.662500X0.075000X-0.662500X0.075000X0.662500X-0.075000X0.662500X0*%
%TD*%
%TA.AperFunction,SMDPad,CuDef*%
%ADD19RoundRect,0.075000X-0.662500X-0.075000X0.662500X-0.075000X0.662500X0.075000X-0.662500X0.075000X0*%
%TD*%
%TA.AperFunction,SMDPad,CuDef*%
%ADD20RoundRect,0.250000X-2.050000X-0.300000X2.050000X-0.300000X2.050000X0.300000X-2.050000X0.300000X0*%
%TD*%
%TA.AperFunction,SMDPad,CuDef*%
%ADD21RoundRect,0.250002X-4.449998X-5.149998X4.449998X-5.149998X4.449998X5.149998X-4.449998X5.149998X0*%
%TD*%
%TA.AperFunction,SMDPad,CuDef*%
%ADD22RoundRect,0.250000X-0.250000X-0.475000X0.250000X-0.475000X0.250000X0.475000X-0.250000X0.475000X0*%
%TD*%
%TA.AperFunction,ComponentPad*%
%ADD23O,1.905000X2.000000*%
%TD*%
%TA.AperFunction,ComponentPad*%
%ADD24R,1.905000X2.000000*%
%TD*%
%TA.AperFunction,ViaPad*%
%ADD25C,0.800000*%
%TD*%
%TA.AperFunction,Conductor*%
%ADD26C,0.300000*%
%TD*%
%TA.AperFunction,Conductor*%
%ADD27C,0.200000*%
%TD*%
%TA.AperFunction,Conductor*%
%ADD28C,0.500000*%
%TD*%
%TA.AperFunction,Conductor*%
%ADD29C,1.000000*%
%TD*%
%ADD30RoundRect,0.250000X-0.550000X-0.550000X0.550000X-0.550000X0.550000X0.550000X-0.550000X0.550000X0*%
%ADD31C,1.600000*%
%ADD32C,1.700000*%
%ADD33R,1.700000X1.700000*%
%ADD34O,1.905000X2.000000*%
%ADD35R,1.905000X2.000000*%
%ADD36RoundRect,0.250000X-0.262500X-0.450000X0.262500X-0.450000X0.262500X0.450000X-0.262500X0.450000X0*%
%ADD37RoundRect,0.250000X-0.850000X-0.350000X0.850000X-0.350000X0.850000X0.350000X-0.850000X0.350000X0*%
%ADD38RoundRect,0.249997X-2.950003X-2.650003X2.950003X-2.650003X2.950003X2.650003X-2.950003X2.650003X0*%
%ADD39RoundRect,0.250000X-0.312500X-1.450000X0.312500X-1.450000X0.312500X1.450000X-0.312500X1.450000X0*%
%ADD40RoundRect,0.075000X-0.075000X-0.662500X0.075000X-0.662500X0.075000X0.662500X-0.075000X0.662500X0*%
%ADD41RoundRect,0.075000X-0.662500X-0.075000X0.662500X-0.075000X0.662500X0.075000X-0.662500X0.075000X0*%
%ADD42RoundRect,0.250000X-2.050000X-0.300000X2.050000X-0.300000X2.050000X0.300000X-2.050000X0.300000X0*%
%ADD43RoundRect,0.250002X-4.449998X-5.149998X4.449998X-5.149998X4.449998X5.149998X-4.449998X5.149998X0*%
%ADD44RoundRect,0.250000X-0.250000X-0.475000X0.250000X-0.475000X0.250000X0.475000X-0.250000X0.475000X0*%
%ADD45C,0.150000*%
%ADD46C,0.120000*%
%TA.AperFunction,Profile*%
%ADD47C,0.050000*%
%TD*%
G04 APERTURE END LIST*
D10*
%TO.P,D4,1,K_1*%
%TO.N,+36V*%
X227880000Y-116500000D03*
D11*
%TO.P,D4,2,A_2*%
%TO.N,GND*%
X235500000Y-116500000D03*
%TD*%
D12*
%TO.P,R_fb2,1*%
%TO.N,GND*%
X163675000Y-76000000D03*
%TO.P,R_fb2,2*%
%TO.N,Net-(U1-FB)*%
X165500000Y-76000000D03*
%TD*%
%TO.P,NTC3,1*%
%TO.N,Net-(U2-PA2)*%
X201675000Y-115500000D03*
%TO.P,NTC3,2*%
%TO.N,GND*%
X203500000Y-115500000D03*
%TD*%
%TO.P,NTC1,1*%
%TO.N,Net-(U2-PA0)*%
X167175000Y-116500000D03*
%TO.P,NTC1,2*%
%TO.N,GND*%
X169000000Y-116500000D03*
%TD*%
%TO.P,R_nrst2,1*%
%TO.N,Net-(U2-NRST)*%
X199175000Y-85500000D03*
%TO.P,R_nrst2,2*%
%TO.N,+3V3*%
X201000000Y-85500000D03*
%TD*%
D11*
%TO.P,D2,2,A_2*%
%TO.N,GND*%
X153000000Y-90500000D03*
D10*
%TO.P,D2,1,K_1*%
%TO.N,+3V3*%
X145380000Y-90500000D03*
%TD*%
D13*
%TO.P,J2,2,Pin_2_2*%
%TO.N,GND*%
X269000000Y-112000000D03*
D14*
%TO.P,J2,1,Pin_1_1*%
%TO.N,Net-(J2-Pin_1)*%
X269000000Y-109460000D03*
%TD*%
D11*
%TO.P,D1,2,A_2*%
%TO.N,+40V*%
X116000000Y-85500000D03*
D10*
%TO.P,D1,1,K_1*%
%TO.N,GND*%
X108380000Y-85500000D03*
%TD*%
D12*
%TO.P,R_feedback1,2*%
%TO.N,GND*%
X189500000Y-99500000D03*
%TO.P,R_feedback1,1*%
%TO.N,+36V*%
X187675000Y-99500000D03*
%TD*%
D15*
%TO.P,U4,3,VI_3*%
%TO.N,+36V*%
X123025000Y-109255000D03*
D16*
%TO.P,U4,2,VO_2*%
%TO.N,+3V3*%
X129325000Y-106975000D03*
D15*
X123025000Y-106975000D03*
%TO.P,U4,1,GND_1*%
%TO.N,GND*%
X123025000Y-104695000D03*
%TD*%
D12*
%TO.P,NTC2,2*%
%TO.N,GND*%
X187000000Y-121000000D03*
%TO.P,NTC2,1*%
%TO.N,Net-(U2-PA1)*%
X185175000Y-121000000D03*
%TD*%
%TO.P,R_nrst1,2*%
%TO.N,+3V3*%
X179000000Y-85500000D03*
%TO.P,R_nrst1,1*%
%TO.N,Net-(U2-NRST)*%
X177175000Y-85500000D03*
%TD*%
%TO.P,R_gate1,2*%
%TO.N,Net-(U3-O1)*%
X239500000Y-94500000D03*
%TO.P,R_gate1,1*%
%TO.N,Net-(Q1-G)*%
X237675000Y-94500000D03*
%TD*%
D11*
%TO.P,D3,2,A_2*%
%TO.N,Net-(D3-A)*%
X179500000Y-136500000D03*
D10*
%TO.P,D3,1,K_1*%
%TO.N,GND*%
X171880000Y-136500000D03*
%TD*%
D13*
%TO.P,J1,2,Pin_2_2*%
%TO.N,GND*%
X108000000Y-54540000D03*
D14*
%TO.P,J1,1,Pin_1_1*%
%TO.N,+40V*%
X108000000Y-52000000D03*
%TD*%
D12*
%TO.P,R_fb1,2*%
%TO.N,Net-(U1-FB)*%
X138000000Y-76000000D03*
%TO.P,R_fb1,1*%
%TO.N,+36V*%
X136175000Y-76000000D03*
%TD*%
D17*
%TO.P,F1,2*%
%TO.N,Net-(D3-A)*%
X112628016Y-69441832D03*
%TO.P,F1,1*%
%TO.N,+40V*%
X108353016Y-69441832D03*
%TD*%
D18*
%TO.P,U2,48,VDD_48*%
%TO.N,+3V3*%
X187500000Y-54675000D03*
%TO.P,U2,47,VSS_47*%
%TO.N,GND*%
X188000000Y-54675000D03*
%TO.P,U2,46,PB9_46*%
%TO.N,unconnected-(U2-PB9-Pad46)*%
X188500000Y-54675000D03*
%TO.P,U2,45,PB8_45*%
%TO.N,unconnected-(U2-PB8-Pad45)*%
X189000000Y-54675000D03*
%TO.P,U2,44,BOOT0_44*%
%TO.N,GND*%
X189500000Y-54675000D03*
%TO.P,U2,43,PB7_43*%
%TO.N,unconnected-(U2-PB7-Pad43)*%
X190000000Y-54675000D03*
%TO.P,U2,42,PB6_42*%
%TO.N,unconnected-(U2-PB6-Pad42)*%
X190500000Y-54675000D03*
%TO.P,U2,41,PB5_41*%
%TO.N,unconnected-(U2-PB5-Pad41)*%
X191000000Y-54675000D03*
%TO.P,U2,40,PB4_40*%
%TO.N,unconnected-(U2-PB4-Pad40)*%
X191500000Y-54675000D03*
%TO.P,U2,39,PB3_39*%
%TO.N,unconnected-(U2-PB3-Pad39)*%
X192000000Y-54675000D03*
%TO.P,U2,38,PA15_38*%
%TO.N,unconnected-(U2-PA15-Pad38)*%
X192500000Y-54675000D03*
%TO.P,U2,37,PA14_37*%
%TO.N,unconnected-(U2-PA14-Pad37)*%
X193000000Y-54675000D03*
D19*
%TO.P,U2,36,VDD_36*%
%TO.N,+3V3*%
X194412500Y-56087500D03*
%TO.P,U2,35,VSS_35*%
%TO.N,GND*%
X194412500Y-56587500D03*
%TO.P,U2,34,PA13_34*%
%TO.N,unconnected-(U2-PA13-Pad34)*%
X194412500Y-57087500D03*
%TO.P,U2,33,PA12_33*%
%TO.N,unconnected-(U2-PA12-Pad33)*%
X194412500Y-57587500D03*
%TO.P,U2,32,PA11_32*%
%TO.N,unconnected-(U2-PA11-Pad32)*%
X194412500Y-58087500D03*
%TO.P,U2,31,PA10_31*%
%TO.N,unconnected-(U2-PA10-Pad31)*%
X194412500Y-58587500D03*
%TO.P,U2,30,PA9_30*%
%TO.N,unconnected-(U2-PA9-Pad30)*%
X194412500Y-59087500D03*
%TO.P,U2,29,PA8_29*%
%TO.N,Net-(U2-PA8)*%
X194412500Y-59587500D03*
%TO.P,U2,28,PB15_28*%
%TO.N,unconnected-(U2-PB15-Pad28)*%
X194412500Y-60087500D03*
%TO.P,U2,27,PB14_27*%
%TO.N,unconnected-(U2-PB14-Pad27)*%
X194412500Y-60587500D03*
%TO.P,U2,26,PB13_26*%
%TO.N,unconnected-(U2-PB13-Pad26)*%
X194412500Y-61087500D03*
%TO.P,U2,25,PB12_25*%
%TO.N,unconnected-(U2-PB12-Pad25)*%
X194412500Y-61587500D03*
D18*
%TO.P,U2,24,VDD_24*%
%TO.N,+3V3*%
X193000000Y-63000000D03*
%TO.P,U2,23,VSS_23*%
%TO.N,GND*%
X192500000Y-63000000D03*
%TO.P,U2,22,PB11_22*%
%TO.N,unconnected-(U2-PB11-Pad22)*%
X192000000Y-63000000D03*
%TO.P,U2,21,PB10_21*%
%TO.N,unconnected-(U2-PB10-Pad21)*%
X191500000Y-63000000D03*
%TO.P,U2,20,PB2_20*%
%TO.N,unconnected-(U2-PB2-Pad20)*%
X191000000Y-63000000D03*
%TO.P,U2,19,PB1_19*%
%TO.N,unconnected-(U2-PB1-Pad19)*%
X190500000Y-63000000D03*
%TO.P,U2,18,PB0_18*%
%TO.N,unconnected-(U2-PB0-Pad18)*%
X190000000Y-63000000D03*
%TO.P,U2,17,PA7_17*%
%TO.N,unconnected-(U2-PA7-Pad17)*%
X189500000Y-63000000D03*
%TO.P,U2,16,PA6_16*%
%TO.N,unconnected-(U2-PA6-Pad16)*%
X189000000Y-63000000D03*
%TO.P,U2,15,PA5_15*%
%TO.N,GND*%
X188500000Y-63000000D03*
%TO.P,U2,14,PA4_14*%
X188000000Y-63000000D03*
%TO.P,U2,13,PA3_13*%
%TO.N,Net-(U2-PA3)*%
X187500000Y-63000000D03*
D19*
%TO.P,U2,12,PA2_12*%
%TO.N,Net-(U2-PA2)*%
X186087500Y-61587500D03*
%TO.P,U2,11,PA1_11*%
%TO.N,Net-(U2-PA1)*%
X186087500Y-61087500D03*
%TO.P,U2,10,PA0_10*%
%TO.N,Net-(U2-PA0)*%
X186087500Y-60587500D03*
%TO.P,U2,9,VDDA_9*%
%TO.N,+3V3*%
X186087500Y-60087500D03*
%TO.P,U2,8,VSSA_8*%
%TO.N,GND*%
X186087500Y-59587500D03*
%TO.P,U2,7,NRST_7*%
%TO.N,Net-(U2-NRST)*%
X186087500Y-59087500D03*
%TO.P,U2,6,PD1_6*%
%TO.N,GND*%
X186087500Y-58587500D03*
%TO.P,U2,5,PD0_5*%
X186087500Y-58087500D03*
%TO.P,U2,4,PC15_4*%
%TO.N,unconnected-(U2-PC15-Pad4)*%
X186087500Y-57587500D03*
%TO.P,U2,3,PC14_3*%
%TO.N,unconnected-(U2-PC14-Pad3)*%
X186087500Y-57087500D03*
%TO.P,U2,2,PC13_2*%
%TO.N,GND*%
X186087500Y-56587500D03*
%TO.P,U2,1,VBAT_1*%
%TO.N,+3V3*%
X186087500Y-56087500D03*
%TD*%
D12*
%TO.P,NTC4,2*%
%TO.N,GND*%
X212000000Y-99500000D03*
%TO.P,NTC4,1*%
%TO.N,Net-(U2-PA3)*%
X210175000Y-99500000D03*
%TD*%
D11*
%TO.P,U3,16,O1_16*%
%TO.N,Net-(U3-O1)*%
X239000000Y-58720000D03*
%TO.P,U3,15,O2_15*%
%TO.N,unconnected-(U3-O2-Pad15)*%
X239000000Y-61260000D03*
%TO.P,U3,14,O3_14*%
%TO.N,unconnected-(U3-O3-Pad14)*%
X239000000Y-63800000D03*
%TO.P,U3,13,O4_13*%
%TO.N,unconnected-(U3-O4-Pad13)*%
X239000000Y-66340000D03*
%TO.P,U3,12,O5_12*%
%TO.N,unconnected-(U3-O5-Pad12)*%
X239000000Y-68880000D03*
%TO.P,U3,11,O6_11*%
%TO.N,unconnected-(U3-O6-Pad11)*%
X239000000Y-71420000D03*
%TO.P,U3,10,O7_10*%
%TO.N,unconnected-(U3-O7-Pad10)*%
X239000000Y-73960000D03*
%TO.P,U3,9,COM_9*%
%TO.N,+36V*%
X239000000Y-76500000D03*
%TO.P,U3,8,GND_8*%
%TO.N,GND*%
X231380000Y-76500000D03*
%TO.P,U3,7,I7_7*%
%TO.N,unconnected-(U3-I7-Pad7)*%
X231380000Y-73960000D03*
%TO.P,U3,6,I6_6*%
%TO.N,unconnected-(U3-I6-Pad6)*%
X231380000Y-71420000D03*
%TO.P,U3,5,I5_5*%
%TO.N,unconnected-(U3-I5-Pad5)*%
X231380000Y-68880000D03*
%TO.P,U3,4,I4_4*%
%TO.N,unconnected-(U3-I4-Pad4)*%
X231380000Y-66340000D03*
%TO.P,U3,3,I3_3*%
%TO.N,unconnected-(U3-I3-Pad3)*%
X231380000Y-63800000D03*
%TO.P,U3,2,I2_2*%
%TO.N,unconnected-(U3-I2-Pad2)*%
X231380000Y-61260000D03*
D10*
%TO.P,U3,1,I1_1*%
%TO.N,Net-(U2-PA8)*%
X231380000Y-58720000D03*
%TD*%
D20*
%TO.P,U1,5,~{ON}/OFF_5*%
%TO.N,GND*%
X143925000Y-58625000D03*
%TO.P,U1,4,FB_4*%
%TO.N,Net-(U1-FB)*%
X143925000Y-56925000D03*
D21*
%TO.P,U1,3,GND_3*%
%TO.N,GND*%
X153075000Y-55225000D03*
D20*
X143925000Y-55225000D03*
%TO.P,U1,2,OUT_2*%
%TO.N,+36V*%
X143925000Y-53525000D03*
%TO.P,U1,1,VIN_1*%
%TO.N,Net-(D3-A)*%
X143925000Y-51825000D03*
%TD*%
D12*
%TO.P,R_shunt1,2*%
%TO.N,GND*%
X270500000Y-84000000D03*
%TO.P,R_shunt1,1*%
%TO.N,Net-(J2-Pin_1)*%
X268675000Y-84000000D03*
%TD*%
D22*
%TO.P,C2,2*%
%TO.N,GND*%
X151000000Y-130500000D03*
%TO.P,C2,1*%
%TO.N,+3V3*%
X149100000Y-130500000D03*
%TD*%
D23*
%TO.P,Q1,3,S_3*%
%TO.N,Net-(J2-Pin_1)*%
X268500000Y-65000000D03*
%TO.P,Q1,2,D_2*%
%TO.N,+36V*%
X265960000Y-65000000D03*
D24*
%TO.P,Q1,1,G_1*%
%TO.N,Net-(Q1-G)*%
X263420000Y-65000000D03*
%TD*%
D22*
%TO.P,C1,2*%
%TO.N,GND*%
X124500000Y-130000000D03*
%TO.P,C1,1*%
%TO.N,+36V*%
X122600000Y-130000000D03*
%TD*%
D25*
%TO.N,+3V3*%
X186805963Y-65025491D03*
X182000000Y-57000000D03*
%TO.N,Net-(Q1-G)*%
X238000000Y-90000000D03*
%TO.N,GND*%
X143000000Y-131000000D03*
X133000000Y-102000000D03*
X123000000Y-100000000D03*
%TO.N,+36V*%
X190000000Y-92000000D03*
%TO.N,Net-(U2-NRST)*%
X184000000Y-87000000D03*
%TO.N,Net-(D3-A)*%
X131000000Y-58000000D03*
%TO.N,+3V3*%
X151600000Y-97000000D03*
%TO.N,Net-(U2-PA8)*%
X197449224Y-60000000D03*
%TO.N,+3V3*%
X184250000Y-84898959D03*
X206000000Y-83000000D03*
%TO.N,Net-(U2-NRST)*%
X191932410Y-85500000D03*
%TD*%
%TO.N,Net-(J2-Pin_1)*%
D26*
X268500000Y-83150000D02*
X268500000Y-65000000D01*
X268675000Y-83325000D02*
X268500000Y-83150000D01*
X268675000Y-84000000D02*
X268675000Y-83325000D01*
X269000000Y-84325000D02*
X268675000Y-84000000D01*
X269000000Y-109460000D02*
X269000000Y-84325000D01*
%TO.N,GND*%
X188000000Y-59587500D02*
X187000000Y-58587500D01*
X187000000Y-58587500D02*
X186087500Y-58587500D01*
X188000000Y-59587500D02*
X186087500Y-59587500D01*
D27*
X171412500Y-58087500D02*
X186087500Y-58087500D01*
X171312500Y-58187500D02*
X171412500Y-58087500D01*
%TO.N,+3V3*%
X186857410Y-60087500D02*
X186087500Y-60087500D01*
X187125000Y-60355090D02*
X186857410Y-60087500D01*
X187125000Y-61875000D02*
X187125000Y-60355090D01*
X186805963Y-62194037D02*
X187125000Y-61875000D01*
X186805963Y-65025491D02*
X186805963Y-62194037D01*
X182912500Y-56087500D02*
X182000000Y-57000000D01*
X186087500Y-56087500D02*
X182912500Y-56087500D01*
D26*
X145380000Y-90780000D02*
X145380000Y-90500000D01*
X151600000Y-97000000D02*
X145380000Y-90780000D01*
X151600000Y-97000000D02*
X151600000Y-96720000D01*
%TO.N,Net-(Q1-G)*%
X237675000Y-90325000D02*
X237675000Y-94500000D01*
X238000000Y-90000000D02*
X237675000Y-90325000D01*
%TO.N,GND*%
X143000000Y-131000000D02*
X142000000Y-132000000D01*
X142000000Y-133000000D02*
X148500000Y-133000000D01*
X142000000Y-132000000D02*
X142000000Y-133000000D01*
X133000000Y-102000000D02*
X131275000Y-103725000D01*
X131275000Y-103725000D02*
X123995000Y-103725000D01*
X123025000Y-100025000D02*
X123025000Y-104695000D01*
X123000000Y-100000000D02*
X123025000Y-100025000D01*
%TO.N,+36V*%
D28*
X187675000Y-94325000D02*
X190000000Y-92000000D01*
X187675000Y-99500000D02*
X187675000Y-94325000D01*
%TO.N,GND*%
X214133640Y-99500000D02*
X221316820Y-92316820D01*
X212000000Y-99500000D02*
X214133640Y-99500000D01*
X206892956Y-104607044D02*
X203500000Y-104607044D01*
X212000000Y-99500000D02*
X206892956Y-104607044D01*
%TO.N,Net-(U2-PA3)*%
X210175000Y-96384378D02*
X200087500Y-86296878D01*
X210175000Y-99500000D02*
X210175000Y-96384378D01*
%TO.N,GND*%
D26*
X235500000Y-106500000D02*
X221316820Y-92316820D01*
X235500000Y-116500000D02*
X235500000Y-106500000D01*
X221316820Y-92316820D02*
X231380000Y-82253640D01*
X231380000Y-82253640D02*
X231380000Y-76500000D01*
%TO.N,+3V3*%
D27*
X203500000Y-85500000D02*
X206000000Y-83000000D01*
X201000000Y-85500000D02*
X203500000Y-85500000D01*
%TO.N,GND*%
D26*
X189500000Y-99500000D02*
X189500000Y-99967590D01*
%TO.N,Net-(U2-NRST)*%
D27*
X178675000Y-87000000D02*
X184000000Y-87000000D01*
X177175000Y-85500000D02*
X178675000Y-87000000D01*
%TO.N,Net-(D3-A)*%
D28*
X131000000Y-58000000D02*
X131000000Y-53000000D01*
D26*
X130034924Y-52034924D02*
X112628016Y-69441832D01*
D28*
X131000000Y-53000000D02*
X130034924Y-52034924D01*
%TO.N,+3V3*%
D26*
X151850000Y-97000000D02*
X151600000Y-97000000D01*
X151850000Y-97000000D02*
X151850000Y-131230456D01*
%TO.N,Net-(U2-PA8)*%
D27*
X197036724Y-59587500D02*
X197449224Y-60000000D01*
X194412500Y-59587500D02*
X197036724Y-59587500D01*
%TO.N,+3V3*%
D28*
X179601041Y-84898959D02*
X184250000Y-84898959D01*
X179000000Y-85500000D02*
X179601041Y-84898959D01*
%TO.N,Net-(U2-NRST)*%
X199175000Y-85500000D02*
X191932410Y-85500000D01*
%TO.N,GND*%
D26*
X148594544Y-131575000D02*
X149925000Y-131575000D01*
X144230000Y-127210456D02*
X148594544Y-131575000D01*
X144230000Y-89694544D02*
X144230000Y-127210456D01*
X149925000Y-131575000D02*
X151000000Y-130500000D01*
X144574544Y-89350000D02*
X144230000Y-89694544D01*
X146185456Y-89350000D02*
X144574544Y-89350000D01*
X152350000Y-95514544D02*
X146185456Y-89350000D01*
X152350000Y-130500000D02*
X152350000Y-95514544D01*
X177242956Y-130500000D02*
X152350000Y-130500000D01*
X189500000Y-118242956D02*
X177242956Y-130500000D01*
X189500000Y-99500000D02*
X189500000Y-118242956D01*
X201157044Y-116550000D02*
X189500000Y-104892956D01*
X202192956Y-116550000D02*
X201157044Y-116550000D01*
X189500000Y-104892956D02*
X189500000Y-99500000D01*
X203500000Y-104607044D02*
X203500000Y-115242956D01*
X203500000Y-115242956D02*
X202192956Y-116550000D01*
%TO.N,Net-(U2-PA3)*%
D27*
X200187500Y-77621815D02*
X200187500Y-86190256D01*
X187500000Y-64934315D02*
X200187500Y-77621815D01*
X187500000Y-63000000D02*
X187500000Y-64934315D01*
%TO.N,Net-(U2-PA2)*%
X188000000Y-66000000D02*
X186087500Y-66000000D01*
X191232410Y-69232410D02*
X188000000Y-66000000D01*
X191232410Y-105057410D02*
X191232410Y-69232410D01*
X201675000Y-115500000D02*
X191232410Y-105057410D01*
%TO.N,GND*%
D26*
X203500000Y-115500000D02*
X203500000Y-104607044D01*
X193378679Y-125621321D02*
X203500000Y-115500000D01*
%TO.N,Net-(U2-PA2)*%
D27*
X186087500Y-61587500D02*
X186087500Y-66000000D01*
%TO.N,+3V3*%
D26*
X124475000Y-108425000D02*
X123025000Y-106975000D01*
X124475000Y-109860456D02*
X124475000Y-108425000D01*
X123450000Y-110885456D02*
X124475000Y-109860456D01*
X123450000Y-130730456D02*
X123450000Y-110885456D01*
X126219544Y-133500000D02*
X123450000Y-130730456D01*
X149580456Y-133500000D02*
X126219544Y-133500000D01*
X151850000Y-131230456D02*
X149580456Y-133500000D01*
X151850000Y-96970000D02*
X151850000Y-97000000D01*
%TO.N,GND*%
D28*
X153000000Y-55300000D02*
X153075000Y-55225000D01*
X153000000Y-90500000D02*
X153000000Y-55300000D01*
%TO.N,+3V3*%
D27*
X123700000Y-112600000D02*
X129325000Y-106975000D01*
X123700000Y-130709744D02*
X123700000Y-112600000D01*
X126440256Y-133450000D02*
X123700000Y-130709744D01*
X149559744Y-133450000D02*
X126440256Y-133450000D01*
X151800000Y-131209744D02*
X149559744Y-133450000D01*
X151800000Y-129790256D02*
X151800000Y-131209744D01*
X151484744Y-129475000D02*
X151800000Y-129790256D01*
X150125000Y-129475000D02*
X151484744Y-129475000D01*
X149100000Y-130500000D02*
X150125000Y-129475000D01*
%TO.N,GND*%
D26*
X127500000Y-133000000D02*
X142000000Y-133000000D01*
X148500000Y-133000000D02*
X151000000Y-130500000D01*
X124500000Y-130000000D02*
X127500000Y-133000000D01*
X171880000Y-127620000D02*
X177000000Y-122500000D01*
X171880000Y-136500000D02*
X171880000Y-127620000D01*
D27*
X177000000Y-122500000D02*
X185879352Y-122500000D01*
%TO.N,+3V3*%
X198149224Y-64850776D02*
X196500000Y-66500000D01*
X198149224Y-58554315D02*
X198149224Y-64850776D01*
X194412500Y-56087500D02*
X195682409Y-56087500D01*
X196500000Y-66500000D02*
X201000000Y-71000000D01*
X195682409Y-56087500D02*
X198149224Y-58554315D01*
%TO.N,GND*%
D26*
X191000000Y-60000000D02*
X191000000Y-59093694D01*
X191000000Y-60000000D02*
X190587500Y-59587500D01*
X191000000Y-59093694D02*
X193506194Y-56587500D01*
X193506194Y-56587500D02*
X194412500Y-56587500D01*
X189659380Y-61000000D02*
X188500000Y-62159380D01*
X192000000Y-61000000D02*
X189659380Y-61000000D01*
X192000000Y-61000000D02*
X191000000Y-60000000D01*
X188500000Y-62159380D02*
X188500000Y-63000000D01*
X188000000Y-63000000D02*
X188500000Y-63000000D01*
D28*
X163675000Y-65825000D02*
X171312500Y-58187500D01*
%TO.N,Net-(U1-FB)*%
D26*
X165500000Y-79626346D02*
X165500000Y-76000000D01*
X138000000Y-77126346D02*
X152523654Y-91650000D01*
X153476346Y-91650000D02*
X165500000Y-79626346D01*
X138000000Y-76000000D02*
X138000000Y-77126346D01*
X152523654Y-91650000D02*
X153476346Y-91650000D01*
%TO.N,GND*%
D28*
X163675000Y-79825000D02*
X153000000Y-90500000D01*
X163675000Y-76000000D02*
X163675000Y-79825000D01*
%TO.N,Net-(U2-NRST)*%
D27*
X167987500Y-94687500D02*
X177175000Y-85500000D01*
X167672244Y-117500000D02*
X167987500Y-117184744D01*
X166677756Y-117500000D02*
X167672244Y-117500000D01*
X166362500Y-117184744D02*
X166677756Y-117500000D01*
X166362500Y-78042590D02*
X166362500Y-117184744D01*
X167987500Y-117184744D02*
X167987500Y-94687500D01*
X185317590Y-59087500D02*
X166362500Y-78042590D01*
X186087500Y-59087500D02*
X185317590Y-59087500D01*
%TO.N,GND*%
X187000000Y-121379352D02*
X187000000Y-121000000D01*
X185879352Y-122500000D02*
X187000000Y-121379352D01*
X175000000Y-122500000D02*
X177000000Y-122500000D01*
X169000000Y-116500000D02*
X175000000Y-122500000D01*
%TO.N,Net-(U2-PA0)*%
X167175000Y-78522984D02*
X167175000Y-116500000D01*
X185110484Y-60587500D02*
X167175000Y-78522984D01*
X186087500Y-60587500D02*
X185110484Y-60587500D01*
%TO.N,+3V3*%
X187500000Y-54675000D02*
X186087500Y-56087500D01*
X187500000Y-53839404D02*
X187500000Y-54675000D01*
X192832410Y-53237500D02*
X188101904Y-53237500D01*
X194412500Y-54817590D02*
X192832410Y-53237500D01*
X188101904Y-53237500D02*
X187500000Y-53839404D01*
X194412500Y-56087500D02*
X194412500Y-54817590D01*
X201000000Y-71000000D02*
X201000000Y-85500000D01*
X193000000Y-63000000D02*
X196500000Y-66500000D01*
%TO.N,GND*%
X194412500Y-56587500D02*
X193587500Y-56587500D01*
D26*
X190587500Y-59587500D02*
X188000000Y-59587500D01*
X192500000Y-63000000D02*
X192500000Y-61500000D01*
X192500000Y-61500000D02*
X192000000Y-61000000D01*
D27*
X186087500Y-58587500D02*
X186087500Y-58087500D01*
X187125000Y-57819910D02*
X187125000Y-56855090D01*
X186857410Y-58087500D02*
X187125000Y-57819910D01*
X187125000Y-56855090D02*
X186857410Y-56587500D01*
X186857410Y-56587500D02*
X186087500Y-56587500D01*
X186087500Y-58087500D02*
X186857410Y-58087500D01*
X188000000Y-55444910D02*
X186857410Y-56587500D01*
X188000000Y-54675000D02*
X188000000Y-55444910D01*
X188267590Y-53637500D02*
X189232410Y-53637500D01*
X189500000Y-53905090D02*
X189500000Y-54675000D01*
X188000000Y-53905090D02*
X188267590Y-53637500D01*
X188000000Y-54675000D02*
X188000000Y-53905090D01*
X189232410Y-53637500D02*
X189500000Y-53905090D01*
D26*
X132530458Y-103725000D02*
X131275000Y-103725000D01*
X123995000Y-103725000D02*
X123025000Y-104695000D01*
X132875000Y-104069542D02*
X132530458Y-103725000D01*
X132875000Y-121625000D02*
X132875000Y-104069542D01*
X124500000Y-130000000D02*
X132875000Y-121625000D01*
%TO.N,+36V*%
X122600000Y-109680000D02*
X123025000Y-109255000D01*
X122600000Y-130000000D02*
X122600000Y-109680000D01*
X121575000Y-107805000D02*
X123025000Y-109255000D01*
X121575000Y-90600000D02*
X121575000Y-107805000D01*
X136175000Y-76000000D02*
X121575000Y-90600000D01*
X141625000Y-53525000D02*
X143925000Y-53525000D01*
X136175000Y-58975000D02*
X141625000Y-53525000D01*
X136175000Y-76000000D02*
X136175000Y-58975000D01*
%TO.N,+40V*%
X108353016Y-77853016D02*
X116000000Y-85500000D01*
X108353016Y-69441832D02*
X108353016Y-77853016D01*
X109410000Y-53410000D02*
X109410000Y-68384848D01*
X108000000Y-52000000D02*
X109410000Y-53410000D01*
X109410000Y-68384848D02*
X108353016Y-69441832D01*
%TO.N,GND*%
D29*
X106460000Y-56640000D02*
X106460000Y-83580000D01*
X108560000Y-54540000D02*
X106460000Y-56640000D01*
X106460000Y-83580000D02*
X108380000Y-85500000D01*
%TO.N,Net-(D3-A)*%
D26*
X130244848Y-51825000D02*
X130034924Y-52034924D01*
X143925000Y-51825000D02*
X130244848Y-51825000D01*
%TO.N,Net-(U1-FB)*%
X137812929Y-75812929D02*
X138000000Y-76000000D01*
X137812929Y-60737071D02*
X137812929Y-75812929D01*
X141625000Y-56925000D02*
X137812929Y-60737071D01*
X143925000Y-56925000D02*
X141625000Y-56925000D01*
%TO.N,GND*%
X149675000Y-58625000D02*
X153075000Y-55225000D01*
X143925000Y-58625000D02*
X149675000Y-58625000D01*
D28*
X143925000Y-55225000D02*
X153075000Y-55225000D01*
%TO.N,+36V*%
D26*
X151844544Y-46000000D02*
X146575000Y-51269544D01*
X246960000Y-46000000D02*
X151844544Y-46000000D01*
X146575000Y-51269544D02*
X146575000Y-52380456D01*
X146575000Y-52380456D02*
X145430456Y-53525000D01*
X265960000Y-65000000D02*
X246960000Y-46000000D01*
%TO.N,GND*%
X192500000Y-63840620D02*
X192500000Y-63000000D01*
X188000000Y-63000000D02*
X188000000Y-63737499D01*
%TO.N,Net-(U2-PA1)*%
X185246880Y-61087500D02*
X186087500Y-61087500D01*
X185000000Y-120825000D02*
X185000000Y-61334380D01*
X185000000Y-61334380D02*
X185246880Y-61087500D01*
X185175000Y-121000000D02*
X185000000Y-120825000D01*
%TO.N,GND*%
X193378679Y-125621321D02*
X192500000Y-125621321D01*
X187000000Y-121000000D02*
X187878679Y-121000000D01*
X187878679Y-121000000D02*
X192500000Y-125621321D01*
%TO.N,Net-(U3-O1)*%
X241000000Y-60720000D02*
X239000000Y-58720000D01*
X241000000Y-93000000D02*
X241000000Y-60720000D01*
X239500000Y-94500000D02*
X241000000Y-93000000D01*
%TO.N,GND*%
X270500000Y-110500000D02*
X269000000Y-112000000D01*
X270500000Y-84000000D02*
X270500000Y-110500000D01*
D28*
X163675000Y-65825000D02*
X153075000Y-55225000D01*
X163675000Y-76000000D02*
X163675000Y-65825000D01*
D29*
X108000000Y-54540000D02*
X108560000Y-54540000D01*
%TO.N,+3V3*%
X123025000Y-106975000D02*
X124125000Y-106975000D01*
X123025000Y-106975000D02*
X129325000Y-106975000D01*
%TO.N,GND*%
D28*
X143925000Y-55225000D02*
X143925000Y-55075000D01*
X143925000Y-55075000D02*
X144000000Y-55000000D01*
%TD*%
D10*
%TO.P,D4,1,K_1*%
%TO.N,+36V*%
X227880000Y-116500000D03*
D11*
%TO.P,D4,2,A_2*%
%TO.N,GND*%
X235500000Y-116500000D03*
%TD*%
%TO.P,D2,2,A_2*%
%TO.N,GND*%
X153000000Y-90500000D03*
D10*
%TO.P,D2,1,K_1*%
%TO.N,+3V3*%
X145380000Y-90500000D03*
%TD*%
D13*
%TO.P,J2,2,Pin_2_2*%
%TO.N,GND*%
X269000000Y-112000000D03*
D14*
%TO.P,J2,1,Pin_1_1*%
%TO.N,Net-(J2-Pin_1)*%
X269000000Y-109460000D03*
%TD*%
D11*
%TO.P,D1,2,A_2*%
%TO.N,+40V*%
X116000000Y-85500000D03*
D10*
%TO.P,D1,1,K_1*%
%TO.N,GND*%
X108380000Y-85500000D03*
%TD*%
D11*
%TO.P,D3,2,A_2*%
%TO.N,Net-(D3-A)*%
X179500000Y-136500000D03*
D10*
%TO.P,D3,1,K_1*%
%TO.N,GND*%
X171880000Y-136500000D03*
%TD*%
D13*
%TO.P,J1,2,Pin_2_2*%
%TO.N,GND*%
X108000000Y-54540000D03*
D14*
%TO.P,J1,1,Pin_1_1*%
%TO.N,+40V*%
X108000000Y-52000000D03*
%TD*%
D11*
%TO.P,U3,16,O1_16*%
%TO.N,Net-(U3-O1)*%
X239000000Y-58720000D03*
%TO.P,U3,15,O2_15*%
%TO.N,unconnected-(U3-O2-Pad15)*%
X239000000Y-61260000D03*
%TO.P,U3,14,O3_14*%
%TO.N,unconnected-(U3-O3-Pad14)*%
X239000000Y-63800000D03*
%TO.P,U3,13,O4_13*%
%TO.N,unconnected-(U3-O4-Pad13)*%
X239000000Y-66340000D03*
%TO.P,U3,12,O5_12*%
%TO.N,unconnected-(U3-O5-Pad12)*%
X239000000Y-68880000D03*
%TO.P,U3,11,O6_11*%
%TO.N,unconnected-(U3-O6-Pad11)*%
X239000000Y-71420000D03*
%TO.P,U3,10,O7_10*%
%TO.N,unconnected-(U3-O7-Pad10)*%
X239000000Y-73960000D03*
%TO.P,U3,9,COM_9*%
%TO.N,+36V*%
X239000000Y-76500000D03*
%TO.P,U3,8,GND_8*%
%TO.N,GND*%
X231380000Y-76500000D03*
%TO.P,U3,7,I7_7*%
%TO.N,unconnected-(U3-I7-Pad7)*%
X231380000Y-73960000D03*
%TO.P,U3,6,I6_6*%
%TO.N,unconnected-(U3-I6-Pad6)*%
X231380000Y-71420000D03*
%TO.P,U3,5,I5_5*%
%TO.N,unconnected-(U3-I5-Pad5)*%
X231380000Y-68880000D03*
%TO.P,U3,4,I4_4*%
%TO.N,unconnected-(U3-I4-Pad4)*%
X231380000Y-66340000D03*
%TO.P,U3,3,I3_3*%
%TO.N,unconnected-(U3-I3-Pad3)*%
X231380000Y-63800000D03*
%TO.P,U3,2,I2_2*%
%TO.N,unconnected-(U3-I2-Pad2)*%
X231380000Y-61260000D03*
D10*
%TO.P,U3,1,I1_1*%
%TO.N,Net-(U2-PA8)*%
X231380000Y-58720000D03*
%TD*%
D23*
%TO.P,Q1,3,S_3*%
%TO.N,Net-(J2-Pin_1)*%
X268500000Y-65000000D03*
%TO.P,Q1,2,D_2*%
%TO.N,+36V*%
X265960000Y-65000000D03*
D24*
%TO.P,Q1,1,G_1*%
%TO.N,Net-(Q1-G)*%
X263420000Y-65000000D03*
%TD*%
D25*
%TO.N,+3V3*%
X186805963Y-65025491D03*
X182000000Y-57000000D03*
%TO.N,Net-(Q1-G)*%
X238000000Y-90000000D03*
%TO.N,GND*%
X143000000Y-131000000D03*
X133000000Y-102000000D03*
X123000000Y-100000000D03*
%TO.N,+36V*%
X190000000Y-92000000D03*
%TO.N,Net-(U2-NRST)*%
X184000000Y-87000000D03*
%TO.N,Net-(D3-A)*%
X131000000Y-58000000D03*
%TO.N,+3V3*%
X151600000Y-97000000D03*
%TO.N,Net-(U2-PA8)*%
X197449224Y-60000000D03*
%TO.N,+3V3*%
X184250000Y-84898959D03*
X206000000Y-83000000D03*
%TO.N,Net-(U2-NRST)*%
X191932410Y-85500000D03*
%TD*%
%TO.N,+3V3*%
D27*
X182000000Y-60219528D02*
X186805963Y-65025491D01*
X182000000Y-57000000D02*
X182000000Y-60219528D01*
%TO.N,Net-(Q1-G)*%
D26*
X242000000Y-90000000D02*
X238000000Y-90000000D01*
X263420000Y-68580000D02*
X242000000Y-90000000D01*
%TO.N,GND*%
X143000000Y-131000000D02*
X148500000Y-136500000D01*
X148500000Y-136500000D02*
X171880000Y-136500000D01*
X133000000Y-100924544D02*
X133000000Y-102000000D01*
X118380000Y-100000000D02*
X123000000Y-100000000D01*
X108380000Y-90000000D02*
X118380000Y-100000000D01*
%TO.N,+36V*%
D28*
X203380000Y-92000000D02*
X211500000Y-100120000D01*
X190000000Y-92000000D02*
X203380000Y-92000000D01*
D26*
X233500000Y-76500000D02*
X211500000Y-98500000D01*
%TO.N,GND*%
X264500000Y-116500000D02*
X235500000Y-116500000D01*
%TO.N,Net-(U2-NRST)*%
D27*
X184000000Y-87000000D02*
X185500000Y-85500000D01*
%TO.N,Net-(D3-A)*%
D28*
X154250000Y-81250000D02*
X131000000Y-58000000D01*
X154250000Y-91017767D02*
X154250000Y-81250000D01*
X147848528Y-97419239D02*
X154250000Y-91017767D01*
X147848528Y-104848528D02*
X147848528Y-97419239D01*
X179500000Y-136500000D02*
X147848528Y-104848528D01*
%TO.N,+3V3*%
D26*
X163701041Y-84898959D02*
X184250000Y-84898959D01*
X151600000Y-97000000D02*
X163701041Y-84898959D01*
%TO.N,Net-(U2-PA8)*%
D27*
X197449224Y-60000000D02*
X198729224Y-58720000D01*
X198729224Y-58720000D02*
X231380000Y-58720000D01*
%TO.N,+3V3*%
D28*
X186148959Y-83000000D02*
X206000000Y-83000000D01*
X184250000Y-84898959D02*
X186148959Y-83000000D01*
%TO.N,Net-(U2-NRST)*%
X191932410Y-85500000D02*
X185500000Y-85500000D01*
%TO.N,GND*%
D26*
X144574544Y-89350000D02*
X133000000Y-100924544D01*
X151850000Y-89350000D02*
X144574544Y-89350000D01*
X153000000Y-90500000D02*
X151850000Y-89350000D01*
%TO.N,+3V3*%
X145380000Y-90500000D02*
X145380000Y-90620000D01*
%TO.N,GND*%
X108380000Y-85500000D02*
X108380000Y-90000000D01*
%TO.N,+36V*%
X211500000Y-100120000D02*
X211500000Y-98500000D01*
X233500000Y-76500000D02*
X239000000Y-76500000D01*
X227880000Y-116500000D02*
X211500000Y-100120000D01*
%TO.N,GND*%
X269000000Y-112000000D02*
X264500000Y-116500000D01*
%TO.N,Net-(J2-Pin_1)*%
X268500000Y-108960000D02*
X269000000Y-109460000D01*
%TO.N,+36V*%
X251850000Y-63650000D02*
X239000000Y-76500000D01*
X264610000Y-63650000D02*
X251850000Y-63650000D01*
X265960000Y-65000000D02*
X264610000Y-63650000D01*
%TO.N,Net-(Q1-G)*%
X263420000Y-65000000D02*
X263420000Y-68580000D01*
%TD*%
D30*
%TO.C,D4*%
X227880000Y-116500000D03*
D31*
X235500000Y-116500000D03*
%TD*%
%TO.C,D2*%
X153000000Y-90500000D03*
D30*
X145380000Y-90500000D03*
%TD*%
D32*
%TO.C,J2*%
X269000000Y-112000000D03*
D33*
X269000000Y-109460000D03*
%TD*%
D31*
%TO.C,D1*%
X116000000Y-85500000D03*
D30*
X108380000Y-85500000D03*
%TD*%
D31*
%TO.C,D3*%
X179500000Y-136500000D03*
D30*
X171880000Y-136500000D03*
%TD*%
D32*
%TO.C,J1*%
X108000000Y-54540000D03*
D33*
X108000000Y-52000000D03*
%TD*%
D31*
%TO.C,U3*%
X239000000Y-58720000D03*
X239000000Y-61260000D03*
X239000000Y-63800000D03*
X239000000Y-66340000D03*
X239000000Y-68880000D03*
X239000000Y-71420000D03*
X239000000Y-73960000D03*
X239000000Y-76500000D03*
X231380000Y-76500000D03*
X231380000Y-73960000D03*
X231380000Y-71420000D03*
X231380000Y-68880000D03*
X231380000Y-66340000D03*
X231380000Y-63800000D03*
X231380000Y-61260000D03*
D30*
X231380000Y-58720000D03*
%TD*%
D34*
%TO.C,Q1*%
X268500000Y-65000000D03*
X265960000Y-65000000D03*
D35*
X263420000Y-65000000D03*
%TD*%
D30*
%TO.C,D4*%
X227880000Y-116500000D03*
D31*
X235500000Y-116500000D03*
%TD*%
D36*
%TO.C,R_fb2*%
X163675000Y-76000000D03*
X165500000Y-76000000D03*
%TD*%
%TO.C,NTC3*%
X201675000Y-115500000D03*
X203500000Y-115500000D03*
%TD*%
%TO.C,NTC1*%
X167175000Y-116500000D03*
X169000000Y-116500000D03*
%TD*%
%TO.C,R_nrst2*%
X199175000Y-85500000D03*
X201000000Y-85500000D03*
%TD*%
D31*
%TO.C,D2*%
X153000000Y-90500000D03*
D30*
X145380000Y-90500000D03*
%TD*%
D32*
%TO.C,J2*%
X269000000Y-112000000D03*
D33*
X269000000Y-109460000D03*
%TD*%
D31*
%TO.C,D1*%
X116000000Y-85500000D03*
D30*
X108380000Y-85500000D03*
%TD*%
D36*
%TO.C,R_feedback1*%
X189500000Y-99500000D03*
X187675000Y-99500000D03*
%TD*%
D37*
%TO.C,U4*%
X123025000Y-109255000D03*
D38*
X129325000Y-106975000D03*
D37*
X123025000Y-106975000D03*
X123025000Y-104695000D03*
%TD*%
D36*
%TO.C,NTC2*%
X187000000Y-121000000D03*
X185175000Y-121000000D03*
%TD*%
%TO.C,R_nrst1*%
X179000000Y-85500000D03*
X177175000Y-85500000D03*
%TD*%
%TO.C,R_gate1*%
X239500000Y-94500000D03*
X237675000Y-94500000D03*
%TD*%
D31*
%TO.C,D3*%
X179500000Y-136500000D03*
D30*
X171880000Y-136500000D03*
%TD*%
D32*
%TO.C,J1*%
X108000000Y-54540000D03*
D33*
X108000000Y-52000000D03*
%TD*%
D36*
%TO.C,R_fb1*%
X138000000Y-76000000D03*
X136175000Y-76000000D03*
%TD*%
D39*
%TO.C,F1*%
X112628016Y-69441832D03*
X108353016Y-69441832D03*
%TD*%
D40*
%TO.C,U2*%
X187500000Y-54675000D03*
X188000000Y-54675000D03*
X188500000Y-54675000D03*
X189000000Y-54675000D03*
X189500000Y-54675000D03*
X190000000Y-54675000D03*
X190500000Y-54675000D03*
X191000000Y-54675000D03*
X191500000Y-54675000D03*
X192000000Y-54675000D03*
X192500000Y-54675000D03*
X193000000Y-54675000D03*
D41*
X194412500Y-56087500D03*
X194412500Y-56587500D03*
X194412500Y-57087500D03*
X194412500Y-57587500D03*
X194412500Y-58087500D03*
X194412500Y-58587500D03*
X194412500Y-59087500D03*
X194412500Y-59587500D03*
X194412500Y-60087500D03*
X194412500Y-60587500D03*
X194412500Y-61087500D03*
X194412500Y-61587500D03*
D40*
X193000000Y-63000000D03*
X192500000Y-63000000D03*
X192000000Y-63000000D03*
X191500000Y-63000000D03*
X191000000Y-63000000D03*
X190500000Y-63000000D03*
X190000000Y-63000000D03*
X189500000Y-63000000D03*
X189000000Y-63000000D03*
X188500000Y-63000000D03*
X188000000Y-63000000D03*
X187500000Y-63000000D03*
D41*
X186087500Y-61587500D03*
X186087500Y-61087500D03*
X186087500Y-60587500D03*
X186087500Y-60087500D03*
X186087500Y-59587500D03*
X186087500Y-59087500D03*
X186087500Y-58587500D03*
X186087500Y-58087500D03*
X186087500Y-57587500D03*
X186087500Y-57087500D03*
X186087500Y-56587500D03*
X186087500Y-56087500D03*
%TD*%
D36*
%TO.C,NTC4*%
X212000000Y-99500000D03*
X210175000Y-99500000D03*
%TD*%
D31*
%TO.C,U3*%
X239000000Y-58720000D03*
X239000000Y-61260000D03*
X239000000Y-63800000D03*
X239000000Y-66340000D03*
X239000000Y-68880000D03*
X239000000Y-71420000D03*
X239000000Y-73960000D03*
X239000000Y-76500000D03*
X231380000Y-76500000D03*
X231380000Y-73960000D03*
X231380000Y-71420000D03*
X231380000Y-68880000D03*
X231380000Y-66340000D03*
X231380000Y-63800000D03*
X231380000Y-61260000D03*
D30*
X231380000Y-58720000D03*
%TD*%
D42*
%TO.C,U1*%
X143925000Y-58625000D03*
X143925000Y-56925000D03*
D43*
X153075000Y-55225000D03*
D42*
X143925000Y-55225000D03*
X143925000Y-53525000D03*
X143925000Y-51825000D03*
%TD*%
D36*
%TO.C,R_shunt1*%
X270500000Y-84000000D03*
X268675000Y-84000000D03*
%TD*%
D44*
%TO.C,C2*%
X151000000Y-130500000D03*
X149100000Y-130500000D03*
%TD*%
D34*
%TO.C,Q1*%
X268500000Y-65000000D03*
X265960000Y-65000000D03*
D35*
X263420000Y-65000000D03*
%TD*%
D44*
%TO.C,C1*%
X124500000Y-130000000D03*
X122600000Y-130000000D03*
%TD*%
D45*
X230951905Y-114834819D02*
X230951905Y-113834819D01*
X230951905Y-113834819D02*
X231190000Y-113834819D01*
X231190000Y-113834819D02*
X231332857Y-113882438D01*
X231332857Y-113882438D02*
X231428095Y-113977676D01*
X231428095Y-113977676D02*
X231475714Y-114072914D01*
X231475714Y-114072914D02*
X231523333Y-114263390D01*
X231523333Y-114263390D02*
X231523333Y-114406247D01*
X231523333Y-114406247D02*
X231475714Y-114596723D01*
X231475714Y-114596723D02*
X231428095Y-114691961D01*
X231428095Y-114691961D02*
X231332857Y-114787200D01*
X231332857Y-114787200D02*
X231190000Y-114834819D01*
X231190000Y-114834819D02*
X230951905Y-114834819D01*
X232380476Y-114168152D02*
X232380476Y-114834819D01*
X232142381Y-113787200D02*
X231904286Y-114501485D01*
X231904286Y-114501485D02*
X232523333Y-114501485D01*
X227618095Y-115154819D02*
X227618095Y-114154819D01*
X228189523Y-115154819D02*
X227760952Y-114583390D01*
X228189523Y-114154819D02*
X227618095Y-114726247D01*
X163301785Y-74804819D02*
X162968452Y-74328628D01*
X162730357Y-74804819D02*
X162730357Y-73804819D01*
X162730357Y-73804819D02*
X163111309Y-73804819D01*
X163111309Y-73804819D02*
X163206547Y-73852438D01*
X163206547Y-73852438D02*
X163254166Y-73900057D01*
X163254166Y-73900057D02*
X163301785Y-73995295D01*
X163301785Y-73995295D02*
X163301785Y-74138152D01*
X163301785Y-74138152D02*
X163254166Y-74233390D01*
X163254166Y-74233390D02*
X163206547Y-74281009D01*
X163206547Y-74281009D02*
X163111309Y-74328628D01*
X163111309Y-74328628D02*
X162730357Y-74328628D01*
X163492262Y-74900057D02*
X164254166Y-74900057D01*
X164349405Y-74138152D02*
X164730357Y-74138152D01*
X164492262Y-74804819D02*
X164492262Y-73947676D01*
X164492262Y-73947676D02*
X164539881Y-73852438D01*
X164539881Y-73852438D02*
X164635119Y-73804819D01*
X164635119Y-73804819D02*
X164730357Y-73804819D01*
X165063691Y-74804819D02*
X165063691Y-73804819D01*
X165063691Y-74185771D02*
X165158929Y-74138152D01*
X165158929Y-74138152D02*
X165349405Y-74138152D01*
X165349405Y-74138152D02*
X165444643Y-74185771D01*
X165444643Y-74185771D02*
X165492262Y-74233390D01*
X165492262Y-74233390D02*
X165539881Y-74328628D01*
X165539881Y-74328628D02*
X165539881Y-74614342D01*
X165539881Y-74614342D02*
X165492262Y-74709580D01*
X165492262Y-74709580D02*
X165444643Y-74757200D01*
X165444643Y-74757200D02*
X165349405Y-74804819D01*
X165349405Y-74804819D02*
X165158929Y-74804819D01*
X165158929Y-74804819D02*
X165063691Y-74757200D01*
X165920834Y-73900057D02*
X165968453Y-73852438D01*
X165968453Y-73852438D02*
X166063691Y-73804819D01*
X166063691Y-73804819D02*
X166301786Y-73804819D01*
X166301786Y-73804819D02*
X166397024Y-73852438D01*
X166397024Y-73852438D02*
X166444643Y-73900057D01*
X166444643Y-73900057D02*
X166492262Y-73995295D01*
X166492262Y-73995295D02*
X166492262Y-74090533D01*
X166492262Y-74090533D02*
X166444643Y-74233390D01*
X166444643Y-74233390D02*
X165873215Y-74804819D01*
X165873215Y-74804819D02*
X166492262Y-74804819D01*
X200944643Y-114304819D02*
X200944643Y-113304819D01*
X200944643Y-113304819D02*
X201516071Y-114304819D01*
X201516071Y-114304819D02*
X201516071Y-113304819D01*
X201849405Y-113304819D02*
X202420833Y-113304819D01*
X202135119Y-114304819D02*
X202135119Y-113304819D01*
X203325595Y-114209580D02*
X203277976Y-114257200D01*
X203277976Y-114257200D02*
X203135119Y-114304819D01*
X203135119Y-114304819D02*
X203039881Y-114304819D01*
X203039881Y-114304819D02*
X202897024Y-114257200D01*
X202897024Y-114257200D02*
X202801786Y-114161961D01*
X202801786Y-114161961D02*
X202754167Y-114066723D01*
X202754167Y-114066723D02*
X202706548Y-113876247D01*
X202706548Y-113876247D02*
X202706548Y-113733390D01*
X202706548Y-113733390D02*
X202754167Y-113542914D01*
X202754167Y-113542914D02*
X202801786Y-113447676D01*
X202801786Y-113447676D02*
X202897024Y-113352438D01*
X202897024Y-113352438D02*
X203039881Y-113304819D01*
X203039881Y-113304819D02*
X203135119Y-113304819D01*
X203135119Y-113304819D02*
X203277976Y-113352438D01*
X203277976Y-113352438D02*
X203325595Y-113400057D01*
X203658929Y-113304819D02*
X204277976Y-113304819D01*
X204277976Y-113304819D02*
X203944643Y-113685771D01*
X203944643Y-113685771D02*
X204087500Y-113685771D01*
X204087500Y-113685771D02*
X204182738Y-113733390D01*
X204182738Y-113733390D02*
X204230357Y-113781009D01*
X204230357Y-113781009D02*
X204277976Y-113876247D01*
X204277976Y-113876247D02*
X204277976Y-114114342D01*
X204277976Y-114114342D02*
X204230357Y-114209580D01*
X204230357Y-114209580D02*
X204182738Y-114257200D01*
X204182738Y-114257200D02*
X204087500Y-114304819D01*
X204087500Y-114304819D02*
X203801786Y-114304819D01*
X203801786Y-114304819D02*
X203706548Y-114257200D01*
X203706548Y-114257200D02*
X203658929Y-114209580D01*
X166444643Y-115304819D02*
X166444643Y-114304819D01*
X166444643Y-114304819D02*
X167016071Y-115304819D01*
X167016071Y-115304819D02*
X167016071Y-114304819D01*
X167349405Y-114304819D02*
X167920833Y-114304819D01*
X167635119Y-115304819D02*
X167635119Y-114304819D01*
X168825595Y-115209580D02*
X168777976Y-115257200D01*
X168777976Y-115257200D02*
X168635119Y-115304819D01*
X168635119Y-115304819D02*
X168539881Y-115304819D01*
X168539881Y-115304819D02*
X168397024Y-115257200D01*
X168397024Y-115257200D02*
X168301786Y-115161961D01*
X168301786Y-115161961D02*
X168254167Y-115066723D01*
X168254167Y-115066723D02*
X168206548Y-114876247D01*
X168206548Y-114876247D02*
X168206548Y-114733390D01*
X168206548Y-114733390D02*
X168254167Y-114542914D01*
X168254167Y-114542914D02*
X168301786Y-114447676D01*
X168301786Y-114447676D02*
X168397024Y-114352438D01*
X168397024Y-114352438D02*
X168539881Y-114304819D01*
X168539881Y-114304819D02*
X168635119Y-114304819D01*
X168635119Y-114304819D02*
X168777976Y-114352438D01*
X168777976Y-114352438D02*
X168825595Y-114400057D01*
X169777976Y-115304819D02*
X169206548Y-115304819D01*
X169492262Y-115304819D02*
X169492262Y-114304819D01*
X169492262Y-114304819D02*
X169397024Y-114447676D01*
X169397024Y-114447676D02*
X169301786Y-114542914D01*
X169301786Y-114542914D02*
X169206548Y-114590533D01*
X198087499Y-84304819D02*
X197754166Y-83828628D01*
X197516071Y-84304819D02*
X197516071Y-83304819D01*
X197516071Y-83304819D02*
X197897023Y-83304819D01*
X197897023Y-83304819D02*
X197992261Y-83352438D01*
X197992261Y-83352438D02*
X198039880Y-83400057D01*
X198039880Y-83400057D02*
X198087499Y-83495295D01*
X198087499Y-83495295D02*
X198087499Y-83638152D01*
X198087499Y-83638152D02*
X198039880Y-83733390D01*
X198039880Y-83733390D02*
X197992261Y-83781009D01*
X197992261Y-83781009D02*
X197897023Y-83828628D01*
X197897023Y-83828628D02*
X197516071Y-83828628D01*
X198277976Y-84400057D02*
X199039880Y-84400057D01*
X199277976Y-83638152D02*
X199277976Y-84304819D01*
X199277976Y-83733390D02*
X199325595Y-83685771D01*
X199325595Y-83685771D02*
X199420833Y-83638152D01*
X199420833Y-83638152D02*
X199563690Y-83638152D01*
X199563690Y-83638152D02*
X199658928Y-83685771D01*
X199658928Y-83685771D02*
X199706547Y-83781009D01*
X199706547Y-83781009D02*
X199706547Y-84304819D01*
X200182738Y-84304819D02*
X200182738Y-83638152D01*
X200182738Y-83828628D02*
X200230357Y-83733390D01*
X200230357Y-83733390D02*
X200277976Y-83685771D01*
X200277976Y-83685771D02*
X200373214Y-83638152D01*
X200373214Y-83638152D02*
X200468452Y-83638152D01*
X200754167Y-84257200D02*
X200849405Y-84304819D01*
X200849405Y-84304819D02*
X201039881Y-84304819D01*
X201039881Y-84304819D02*
X201135119Y-84257200D01*
X201135119Y-84257200D02*
X201182738Y-84161961D01*
X201182738Y-84161961D02*
X201182738Y-84114342D01*
X201182738Y-84114342D02*
X201135119Y-84019104D01*
X201135119Y-84019104D02*
X201039881Y-83971485D01*
X201039881Y-83971485D02*
X200897024Y-83971485D01*
X200897024Y-83971485D02*
X200801786Y-83923866D01*
X200801786Y-83923866D02*
X200754167Y-83828628D01*
X200754167Y-83828628D02*
X200754167Y-83781009D01*
X200754167Y-83781009D02*
X200801786Y-83685771D01*
X200801786Y-83685771D02*
X200897024Y-83638152D01*
X200897024Y-83638152D02*
X201039881Y-83638152D01*
X201039881Y-83638152D02*
X201135119Y-83685771D01*
X201468453Y-83638152D02*
X201849405Y-83638152D01*
X201611310Y-83304819D02*
X201611310Y-84161961D01*
X201611310Y-84161961D02*
X201658929Y-84257200D01*
X201658929Y-84257200D02*
X201754167Y-84304819D01*
X201754167Y-84304819D02*
X201849405Y-84304819D01*
X202135120Y-83400057D02*
X202182739Y-83352438D01*
X202182739Y-83352438D02*
X202277977Y-83304819D01*
X202277977Y-83304819D02*
X202516072Y-83304819D01*
X202516072Y-83304819D02*
X202611310Y-83352438D01*
X202611310Y-83352438D02*
X202658929Y-83400057D01*
X202658929Y-83400057D02*
X202706548Y-83495295D01*
X202706548Y-83495295D02*
X202706548Y-83590533D01*
X202706548Y-83590533D02*
X202658929Y-83733390D01*
X202658929Y-83733390D02*
X202087501Y-84304819D01*
X202087501Y-84304819D02*
X202706548Y-84304819D01*
X148451905Y-88834819D02*
X148451905Y-87834819D01*
X148451905Y-87834819D02*
X148690000Y-87834819D01*
X148690000Y-87834819D02*
X148832857Y-87882438D01*
X148832857Y-87882438D02*
X148928095Y-87977676D01*
X148928095Y-87977676D02*
X148975714Y-88072914D01*
X148975714Y-88072914D02*
X149023333Y-88263390D01*
X149023333Y-88263390D02*
X149023333Y-88406247D01*
X149023333Y-88406247D02*
X148975714Y-88596723D01*
X148975714Y-88596723D02*
X148928095Y-88691961D01*
X148928095Y-88691961D02*
X148832857Y-88787200D01*
X148832857Y-88787200D02*
X148690000Y-88834819D01*
X148690000Y-88834819D02*
X148451905Y-88834819D01*
X149404286Y-87930057D02*
X149451905Y-87882438D01*
X149451905Y-87882438D02*
X149547143Y-87834819D01*
X149547143Y-87834819D02*
X149785238Y-87834819D01*
X149785238Y-87834819D02*
X149880476Y-87882438D01*
X149880476Y-87882438D02*
X149928095Y-87930057D01*
X149928095Y-87930057D02*
X149975714Y-88025295D01*
X149975714Y-88025295D02*
X149975714Y-88120533D01*
X149975714Y-88120533D02*
X149928095Y-88263390D01*
X149928095Y-88263390D02*
X149356667Y-88834819D01*
X149356667Y-88834819D02*
X149975714Y-88834819D01*
X145118095Y-89154819D02*
X145118095Y-88154819D01*
X145689523Y-89154819D02*
X145260952Y-88583390D01*
X145689523Y-88154819D02*
X145118095Y-88726247D01*
X268666666Y-106534819D02*
X268666666Y-107249104D01*
X268666666Y-107249104D02*
X268619047Y-107391961D01*
X268619047Y-107391961D02*
X268523809Y-107487200D01*
X268523809Y-107487200D02*
X268380952Y-107534819D01*
X268380952Y-107534819D02*
X268285714Y-107534819D01*
X269095238Y-106630057D02*
X269142857Y-106582438D01*
X269142857Y-106582438D02*
X269238095Y-106534819D01*
X269238095Y-106534819D02*
X269476190Y-106534819D01*
X269476190Y-106534819D02*
X269571428Y-106582438D01*
X269571428Y-106582438D02*
X269619047Y-106630057D01*
X269619047Y-106630057D02*
X269666666Y-106725295D01*
X269666666Y-106725295D02*
X269666666Y-106820533D01*
X269666666Y-106820533D02*
X269619047Y-106963390D01*
X269619047Y-106963390D02*
X269047619Y-107534819D01*
X269047619Y-107534819D02*
X269666666Y-107534819D01*
X111451905Y-83834819D02*
X111451905Y-82834819D01*
X111451905Y-82834819D02*
X111690000Y-82834819D01*
X111690000Y-82834819D02*
X111832857Y-82882438D01*
X111832857Y-82882438D02*
X111928095Y-82977676D01*
X111928095Y-82977676D02*
X111975714Y-83072914D01*
X111975714Y-83072914D02*
X112023333Y-83263390D01*
X112023333Y-83263390D02*
X112023333Y-83406247D01*
X112023333Y-83406247D02*
X111975714Y-83596723D01*
X111975714Y-83596723D02*
X111928095Y-83691961D01*
X111928095Y-83691961D02*
X111832857Y-83787200D01*
X111832857Y-83787200D02*
X111690000Y-83834819D01*
X111690000Y-83834819D02*
X111451905Y-83834819D01*
X112975714Y-83834819D02*
X112404286Y-83834819D01*
X112690000Y-83834819D02*
X112690000Y-82834819D01*
X112690000Y-82834819D02*
X112594762Y-82977676D01*
X112594762Y-82977676D02*
X112499524Y-83072914D01*
X112499524Y-83072914D02*
X112404286Y-83120533D01*
X108118095Y-84154819D02*
X108118095Y-83154819D01*
X108689523Y-84154819D02*
X108260952Y-83583390D01*
X108689523Y-83154819D02*
X108118095Y-83726247D01*
X184706546Y-98304819D02*
X184373213Y-97828628D01*
X184135118Y-98304819D02*
X184135118Y-97304819D01*
X184135118Y-97304819D02*
X184516070Y-97304819D01*
X184516070Y-97304819D02*
X184611308Y-97352438D01*
X184611308Y-97352438D02*
X184658927Y-97400057D01*
X184658927Y-97400057D02*
X184706546Y-97495295D01*
X184706546Y-97495295D02*
X184706546Y-97638152D01*
X184706546Y-97638152D02*
X184658927Y-97733390D01*
X184658927Y-97733390D02*
X184611308Y-97781009D01*
X184611308Y-97781009D02*
X184516070Y-97828628D01*
X184516070Y-97828628D02*
X184135118Y-97828628D01*
X184897023Y-98400057D02*
X185658927Y-98400057D01*
X185754166Y-97638152D02*
X186135118Y-97638152D01*
X185897023Y-98304819D02*
X185897023Y-97447676D01*
X185897023Y-97447676D02*
X185944642Y-97352438D01*
X185944642Y-97352438D02*
X186039880Y-97304819D01*
X186039880Y-97304819D02*
X186135118Y-97304819D01*
X186849404Y-98257200D02*
X186754166Y-98304819D01*
X186754166Y-98304819D02*
X186563690Y-98304819D01*
X186563690Y-98304819D02*
X186468452Y-98257200D01*
X186468452Y-98257200D02*
X186420833Y-98161961D01*
X186420833Y-98161961D02*
X186420833Y-97781009D01*
X186420833Y-97781009D02*
X186468452Y-97685771D01*
X186468452Y-97685771D02*
X186563690Y-97638152D01*
X186563690Y-97638152D02*
X186754166Y-97638152D01*
X186754166Y-97638152D02*
X186849404Y-97685771D01*
X186849404Y-97685771D02*
X186897023Y-97781009D01*
X186897023Y-97781009D02*
X186897023Y-97876247D01*
X186897023Y-97876247D02*
X186420833Y-97971485D01*
X187706547Y-98257200D02*
X187611309Y-98304819D01*
X187611309Y-98304819D02*
X187420833Y-98304819D01*
X187420833Y-98304819D02*
X187325595Y-98257200D01*
X187325595Y-98257200D02*
X187277976Y-98161961D01*
X187277976Y-98161961D02*
X187277976Y-97781009D01*
X187277976Y-97781009D02*
X187325595Y-97685771D01*
X187325595Y-97685771D02*
X187420833Y-97638152D01*
X187420833Y-97638152D02*
X187611309Y-97638152D01*
X187611309Y-97638152D02*
X187706547Y-97685771D01*
X187706547Y-97685771D02*
X187754166Y-97781009D01*
X187754166Y-97781009D02*
X187754166Y-97876247D01*
X187754166Y-97876247D02*
X187277976Y-97971485D01*
X188611309Y-98304819D02*
X188611309Y-97304819D01*
X188611309Y-98257200D02*
X188516071Y-98304819D01*
X188516071Y-98304819D02*
X188325595Y-98304819D01*
X188325595Y-98304819D02*
X188230357Y-98257200D01*
X188230357Y-98257200D02*
X188182738Y-98209580D01*
X188182738Y-98209580D02*
X188135119Y-98114342D01*
X188135119Y-98114342D02*
X188135119Y-97828628D01*
X188135119Y-97828628D02*
X188182738Y-97733390D01*
X188182738Y-97733390D02*
X188230357Y-97685771D01*
X188230357Y-97685771D02*
X188325595Y-97638152D01*
X188325595Y-97638152D02*
X188516071Y-97638152D01*
X188516071Y-97638152D02*
X188611309Y-97685771D01*
X189087500Y-98304819D02*
X189087500Y-97304819D01*
X189087500Y-97685771D02*
X189182738Y-97638152D01*
X189182738Y-97638152D02*
X189373214Y-97638152D01*
X189373214Y-97638152D02*
X189468452Y-97685771D01*
X189468452Y-97685771D02*
X189516071Y-97733390D01*
X189516071Y-97733390D02*
X189563690Y-97828628D01*
X189563690Y-97828628D02*
X189563690Y-98114342D01*
X189563690Y-98114342D02*
X189516071Y-98209580D01*
X189516071Y-98209580D02*
X189468452Y-98257200D01*
X189468452Y-98257200D02*
X189373214Y-98304819D01*
X189373214Y-98304819D02*
X189182738Y-98304819D01*
X189182738Y-98304819D02*
X189087500Y-98257200D01*
X190420833Y-98304819D02*
X190420833Y-97781009D01*
X190420833Y-97781009D02*
X190373214Y-97685771D01*
X190373214Y-97685771D02*
X190277976Y-97638152D01*
X190277976Y-97638152D02*
X190087500Y-97638152D01*
X190087500Y-97638152D02*
X189992262Y-97685771D01*
X190420833Y-98257200D02*
X190325595Y-98304819D01*
X190325595Y-98304819D02*
X190087500Y-98304819D01*
X190087500Y-98304819D02*
X189992262Y-98257200D01*
X189992262Y-98257200D02*
X189944643Y-98161961D01*
X189944643Y-98161961D02*
X189944643Y-98066723D01*
X189944643Y-98066723D02*
X189992262Y-97971485D01*
X189992262Y-97971485D02*
X190087500Y-97923866D01*
X190087500Y-97923866D02*
X190325595Y-97923866D01*
X190325595Y-97923866D02*
X190420833Y-97876247D01*
X191325595Y-98257200D02*
X191230357Y-98304819D01*
X191230357Y-98304819D02*
X191039881Y-98304819D01*
X191039881Y-98304819D02*
X190944643Y-98257200D01*
X190944643Y-98257200D02*
X190897024Y-98209580D01*
X190897024Y-98209580D02*
X190849405Y-98114342D01*
X190849405Y-98114342D02*
X190849405Y-97828628D01*
X190849405Y-97828628D02*
X190897024Y-97733390D01*
X190897024Y-97733390D02*
X190944643Y-97685771D01*
X190944643Y-97685771D02*
X191039881Y-97638152D01*
X191039881Y-97638152D02*
X191230357Y-97638152D01*
X191230357Y-97638152D02*
X191325595Y-97685771D01*
X191754167Y-98304819D02*
X191754167Y-97304819D01*
X191849405Y-97923866D02*
X192135119Y-98304819D01*
X192135119Y-97638152D02*
X191754167Y-98019104D01*
X193087500Y-98304819D02*
X192516072Y-98304819D01*
X192801786Y-98304819D02*
X192801786Y-97304819D01*
X192801786Y-97304819D02*
X192706548Y-97447676D01*
X192706548Y-97447676D02*
X192611310Y-97542914D01*
X192611310Y-97542914D02*
X192516072Y-97590533D01*
X127303095Y-101929819D02*
X127303095Y-102739342D01*
X127303095Y-102739342D02*
X127350714Y-102834580D01*
X127350714Y-102834580D02*
X127398333Y-102882200D01*
X127398333Y-102882200D02*
X127493571Y-102929819D01*
X127493571Y-102929819D02*
X127684047Y-102929819D01*
X127684047Y-102929819D02*
X127779285Y-102882200D01*
X127779285Y-102882200D02*
X127826904Y-102834580D01*
X127826904Y-102834580D02*
X127874523Y-102739342D01*
X127874523Y-102739342D02*
X127874523Y-101929819D01*
X128779285Y-102263152D02*
X128779285Y-102929819D01*
X128541190Y-101882200D02*
X128303095Y-102596485D01*
X128303095Y-102596485D02*
X128922142Y-102596485D01*
X184444643Y-119804819D02*
X184444643Y-118804819D01*
X184444643Y-118804819D02*
X185016071Y-119804819D01*
X185016071Y-119804819D02*
X185016071Y-118804819D01*
X185349405Y-118804819D02*
X185920833Y-118804819D01*
X185635119Y-119804819D02*
X185635119Y-118804819D01*
X186825595Y-119709580D02*
X186777976Y-119757200D01*
X186777976Y-119757200D02*
X186635119Y-119804819D01*
X186635119Y-119804819D02*
X186539881Y-119804819D01*
X186539881Y-119804819D02*
X186397024Y-119757200D01*
X186397024Y-119757200D02*
X186301786Y-119661961D01*
X186301786Y-119661961D02*
X186254167Y-119566723D01*
X186254167Y-119566723D02*
X186206548Y-119376247D01*
X186206548Y-119376247D02*
X186206548Y-119233390D01*
X186206548Y-119233390D02*
X186254167Y-119042914D01*
X186254167Y-119042914D02*
X186301786Y-118947676D01*
X186301786Y-118947676D02*
X186397024Y-118852438D01*
X186397024Y-118852438D02*
X186539881Y-118804819D01*
X186539881Y-118804819D02*
X186635119Y-118804819D01*
X186635119Y-118804819D02*
X186777976Y-118852438D01*
X186777976Y-118852438D02*
X186825595Y-118900057D01*
X187206548Y-118900057D02*
X187254167Y-118852438D01*
X187254167Y-118852438D02*
X187349405Y-118804819D01*
X187349405Y-118804819D02*
X187587500Y-118804819D01*
X187587500Y-118804819D02*
X187682738Y-118852438D01*
X187682738Y-118852438D02*
X187730357Y-118900057D01*
X187730357Y-118900057D02*
X187777976Y-118995295D01*
X187777976Y-118995295D02*
X187777976Y-119090533D01*
X187777976Y-119090533D02*
X187730357Y-119233390D01*
X187730357Y-119233390D02*
X187158929Y-119804819D01*
X187158929Y-119804819D02*
X187777976Y-119804819D01*
X176087499Y-84304819D02*
X175754166Y-83828628D01*
X175516071Y-84304819D02*
X175516071Y-83304819D01*
X175516071Y-83304819D02*
X175897023Y-83304819D01*
X175897023Y-83304819D02*
X175992261Y-83352438D01*
X175992261Y-83352438D02*
X176039880Y-83400057D01*
X176039880Y-83400057D02*
X176087499Y-83495295D01*
X176087499Y-83495295D02*
X176087499Y-83638152D01*
X176087499Y-83638152D02*
X176039880Y-83733390D01*
X176039880Y-83733390D02*
X175992261Y-83781009D01*
X175992261Y-83781009D02*
X175897023Y-83828628D01*
X175897023Y-83828628D02*
X175516071Y-83828628D01*
X176277976Y-84400057D02*
X177039880Y-84400057D01*
X177277976Y-83638152D02*
X177277976Y-84304819D01*
X177277976Y-83733390D02*
X177325595Y-83685771D01*
X177325595Y-83685771D02*
X177420833Y-83638152D01*
X177420833Y-83638152D02*
X177563690Y-83638152D01*
X177563690Y-83638152D02*
X177658928Y-83685771D01*
X177658928Y-83685771D02*
X177706547Y-83781009D01*
X177706547Y-83781009D02*
X177706547Y-84304819D01*
X178182738Y-84304819D02*
X178182738Y-83638152D01*
X178182738Y-83828628D02*
X178230357Y-83733390D01*
X178230357Y-83733390D02*
X178277976Y-83685771D01*
X178277976Y-83685771D02*
X178373214Y-83638152D01*
X178373214Y-83638152D02*
X178468452Y-83638152D01*
X178754167Y-84257200D02*
X178849405Y-84304819D01*
X178849405Y-84304819D02*
X179039881Y-84304819D01*
X179039881Y-84304819D02*
X179135119Y-84257200D01*
X179135119Y-84257200D02*
X179182738Y-84161961D01*
X179182738Y-84161961D02*
X179182738Y-84114342D01*
X179182738Y-84114342D02*
X179135119Y-84019104D01*
X179135119Y-84019104D02*
X179039881Y-83971485D01*
X179039881Y-83971485D02*
X178897024Y-83971485D01*
X178897024Y-83971485D02*
X178801786Y-83923866D01*
X178801786Y-83923866D02*
X178754167Y-83828628D01*
X178754167Y-83828628D02*
X178754167Y-83781009D01*
X178754167Y-83781009D02*
X178801786Y-83685771D01*
X178801786Y-83685771D02*
X178897024Y-83638152D01*
X178897024Y-83638152D02*
X179039881Y-83638152D01*
X179039881Y-83638152D02*
X179135119Y-83685771D01*
X179468453Y-83638152D02*
X179849405Y-83638152D01*
X179611310Y-83304819D02*
X179611310Y-84161961D01*
X179611310Y-84161961D02*
X179658929Y-84257200D01*
X179658929Y-84257200D02*
X179754167Y-84304819D01*
X179754167Y-84304819D02*
X179849405Y-84304819D01*
X180706548Y-84304819D02*
X180135120Y-84304819D01*
X180420834Y-84304819D02*
X180420834Y-83304819D01*
X180420834Y-83304819D02*
X180325596Y-83447676D01*
X180325596Y-83447676D02*
X180230358Y-83542914D01*
X180230358Y-83542914D02*
X180135120Y-83590533D01*
X236420832Y-93304819D02*
X236087499Y-92828628D01*
X235849404Y-93304819D02*
X235849404Y-92304819D01*
X235849404Y-92304819D02*
X236230356Y-92304819D01*
X236230356Y-92304819D02*
X236325594Y-92352438D01*
X236325594Y-92352438D02*
X236373213Y-92400057D01*
X236373213Y-92400057D02*
X236420832Y-92495295D01*
X236420832Y-92495295D02*
X236420832Y-92638152D01*
X236420832Y-92638152D02*
X236373213Y-92733390D01*
X236373213Y-92733390D02*
X236325594Y-92781009D01*
X236325594Y-92781009D02*
X236230356Y-92828628D01*
X236230356Y-92828628D02*
X235849404Y-92828628D01*
X236611309Y-93400057D02*
X237373213Y-93400057D01*
X238039880Y-92638152D02*
X238039880Y-93447676D01*
X238039880Y-93447676D02*
X237992261Y-93542914D01*
X237992261Y-93542914D02*
X237944642Y-93590533D01*
X237944642Y-93590533D02*
X237849404Y-93638152D01*
X237849404Y-93638152D02*
X237706547Y-93638152D01*
X237706547Y-93638152D02*
X237611309Y-93590533D01*
X238039880Y-93257200D02*
X237944642Y-93304819D01*
X237944642Y-93304819D02*
X237754166Y-93304819D01*
X237754166Y-93304819D02*
X237658928Y-93257200D01*
X237658928Y-93257200D02*
X237611309Y-93209580D01*
X237611309Y-93209580D02*
X237563690Y-93114342D01*
X237563690Y-93114342D02*
X237563690Y-92828628D01*
X237563690Y-92828628D02*
X237611309Y-92733390D01*
X237611309Y-92733390D02*
X237658928Y-92685771D01*
X237658928Y-92685771D02*
X237754166Y-92638152D01*
X237754166Y-92638152D02*
X237944642Y-92638152D01*
X237944642Y-92638152D02*
X238039880Y-92685771D01*
X238944642Y-93304819D02*
X238944642Y-92781009D01*
X238944642Y-92781009D02*
X238897023Y-92685771D01*
X238897023Y-92685771D02*
X238801785Y-92638152D01*
X238801785Y-92638152D02*
X238611309Y-92638152D01*
X238611309Y-92638152D02*
X238516071Y-92685771D01*
X238944642Y-93257200D02*
X238849404Y-93304819D01*
X238849404Y-93304819D02*
X238611309Y-93304819D01*
X238611309Y-93304819D02*
X238516071Y-93257200D01*
X238516071Y-93257200D02*
X238468452Y-93161961D01*
X238468452Y-93161961D02*
X238468452Y-93066723D01*
X238468452Y-93066723D02*
X238516071Y-92971485D01*
X238516071Y-92971485D02*
X238611309Y-92923866D01*
X238611309Y-92923866D02*
X238849404Y-92923866D01*
X238849404Y-92923866D02*
X238944642Y-92876247D01*
X239277976Y-92638152D02*
X239658928Y-92638152D01*
X239420833Y-92304819D02*
X239420833Y-93161961D01*
X239420833Y-93161961D02*
X239468452Y-93257200D01*
X239468452Y-93257200D02*
X239563690Y-93304819D01*
X239563690Y-93304819D02*
X239658928Y-93304819D01*
X240373214Y-93257200D02*
X240277976Y-93304819D01*
X240277976Y-93304819D02*
X240087500Y-93304819D01*
X240087500Y-93304819D02*
X239992262Y-93257200D01*
X239992262Y-93257200D02*
X239944643Y-93161961D01*
X239944643Y-93161961D02*
X239944643Y-92781009D01*
X239944643Y-92781009D02*
X239992262Y-92685771D01*
X239992262Y-92685771D02*
X240087500Y-92638152D01*
X240087500Y-92638152D02*
X240277976Y-92638152D01*
X240277976Y-92638152D02*
X240373214Y-92685771D01*
X240373214Y-92685771D02*
X240420833Y-92781009D01*
X240420833Y-92781009D02*
X240420833Y-92876247D01*
X240420833Y-92876247D02*
X239944643Y-92971485D01*
X241373214Y-93304819D02*
X240801786Y-93304819D01*
X241087500Y-93304819D02*
X241087500Y-92304819D01*
X241087500Y-92304819D02*
X240992262Y-92447676D01*
X240992262Y-92447676D02*
X240897024Y-92542914D01*
X240897024Y-92542914D02*
X240801786Y-92590533D01*
X174951905Y-134834819D02*
X174951905Y-133834819D01*
X174951905Y-133834819D02*
X175190000Y-133834819D01*
X175190000Y-133834819D02*
X175332857Y-133882438D01*
X175332857Y-133882438D02*
X175428095Y-133977676D01*
X175428095Y-133977676D02*
X175475714Y-134072914D01*
X175475714Y-134072914D02*
X175523333Y-134263390D01*
X175523333Y-134263390D02*
X175523333Y-134406247D01*
X175523333Y-134406247D02*
X175475714Y-134596723D01*
X175475714Y-134596723D02*
X175428095Y-134691961D01*
X175428095Y-134691961D02*
X175332857Y-134787200D01*
X175332857Y-134787200D02*
X175190000Y-134834819D01*
X175190000Y-134834819D02*
X174951905Y-134834819D01*
X175856667Y-133834819D02*
X176475714Y-133834819D01*
X176475714Y-133834819D02*
X176142381Y-134215771D01*
X176142381Y-134215771D02*
X176285238Y-134215771D01*
X176285238Y-134215771D02*
X176380476Y-134263390D01*
X176380476Y-134263390D02*
X176428095Y-134311009D01*
X176428095Y-134311009D02*
X176475714Y-134406247D01*
X176475714Y-134406247D02*
X176475714Y-134644342D01*
X176475714Y-134644342D02*
X176428095Y-134739580D01*
X176428095Y-134739580D02*
X176380476Y-134787200D01*
X176380476Y-134787200D02*
X176285238Y-134834819D01*
X176285238Y-134834819D02*
X175999524Y-134834819D01*
X175999524Y-134834819D02*
X175904286Y-134787200D01*
X175904286Y-134787200D02*
X175856667Y-134739580D01*
X171618095Y-135154819D02*
X171618095Y-134154819D01*
X172189523Y-135154819D02*
X171760952Y-134583390D01*
X172189523Y-134154819D02*
X171618095Y-134726247D01*
X107666666Y-49074819D02*
X107666666Y-49789104D01*
X107666666Y-49789104D02*
X107619047Y-49931961D01*
X107619047Y-49931961D02*
X107523809Y-50027200D01*
X107523809Y-50027200D02*
X107380952Y-50074819D01*
X107380952Y-50074819D02*
X107285714Y-50074819D01*
X108666666Y-50074819D02*
X108095238Y-50074819D01*
X108380952Y-50074819D02*
X108380952Y-49074819D01*
X108380952Y-49074819D02*
X108285714Y-49217676D01*
X108285714Y-49217676D02*
X108190476Y-49312914D01*
X108190476Y-49312914D02*
X108095238Y-49360533D01*
X135801785Y-74804819D02*
X135468452Y-74328628D01*
X135230357Y-74804819D02*
X135230357Y-73804819D01*
X135230357Y-73804819D02*
X135611309Y-73804819D01*
X135611309Y-73804819D02*
X135706547Y-73852438D01*
X135706547Y-73852438D02*
X135754166Y-73900057D01*
X135754166Y-73900057D02*
X135801785Y-73995295D01*
X135801785Y-73995295D02*
X135801785Y-74138152D01*
X135801785Y-74138152D02*
X135754166Y-74233390D01*
X135754166Y-74233390D02*
X135706547Y-74281009D01*
X135706547Y-74281009D02*
X135611309Y-74328628D01*
X135611309Y-74328628D02*
X135230357Y-74328628D01*
X135992262Y-74900057D02*
X136754166Y-74900057D01*
X136849405Y-74138152D02*
X137230357Y-74138152D01*
X136992262Y-74804819D02*
X136992262Y-73947676D01*
X136992262Y-73947676D02*
X137039881Y-73852438D01*
X137039881Y-73852438D02*
X137135119Y-73804819D01*
X137135119Y-73804819D02*
X137230357Y-73804819D01*
X137563691Y-74804819D02*
X137563691Y-73804819D01*
X137563691Y-74185771D02*
X137658929Y-74138152D01*
X137658929Y-74138152D02*
X137849405Y-74138152D01*
X137849405Y-74138152D02*
X137944643Y-74185771D01*
X137944643Y-74185771D02*
X137992262Y-74233390D01*
X137992262Y-74233390D02*
X138039881Y-74328628D01*
X138039881Y-74328628D02*
X138039881Y-74614342D01*
X138039881Y-74614342D02*
X137992262Y-74709580D01*
X137992262Y-74709580D02*
X137944643Y-74757200D01*
X137944643Y-74757200D02*
X137849405Y-74804819D01*
X137849405Y-74804819D02*
X137658929Y-74804819D01*
X137658929Y-74804819D02*
X137563691Y-74757200D01*
X138992262Y-74804819D02*
X138420834Y-74804819D01*
X138706548Y-74804819D02*
X138706548Y-73804819D01*
X138706548Y-73804819D02*
X138611310Y-73947676D01*
X138611310Y-73947676D02*
X138516072Y-74042914D01*
X138516072Y-74042914D02*
X138420834Y-74090533D01*
X110157182Y-66722841D02*
X109823849Y-66722841D01*
X109823849Y-67246651D02*
X109823849Y-66246651D01*
X109823849Y-66246651D02*
X110300039Y-66246651D01*
X111204801Y-67246651D02*
X110633373Y-67246651D01*
X110919087Y-67246651D02*
X110919087Y-66246651D01*
X110919087Y-66246651D02*
X110823849Y-66389508D01*
X110823849Y-66389508D02*
X110728611Y-66484746D01*
X110728611Y-66484746D02*
X110633373Y-66532365D01*
X189488095Y-52442319D02*
X189488095Y-53251842D01*
X189488095Y-53251842D02*
X189535714Y-53347080D01*
X189535714Y-53347080D02*
X189583333Y-53394700D01*
X189583333Y-53394700D02*
X189678571Y-53442319D01*
X189678571Y-53442319D02*
X189869047Y-53442319D01*
X189869047Y-53442319D02*
X189964285Y-53394700D01*
X189964285Y-53394700D02*
X190011904Y-53347080D01*
X190011904Y-53347080D02*
X190059523Y-53251842D01*
X190059523Y-53251842D02*
X190059523Y-52442319D01*
X190488095Y-52537557D02*
X190535714Y-52489938D01*
X190535714Y-52489938D02*
X190630952Y-52442319D01*
X190630952Y-52442319D02*
X190869047Y-52442319D01*
X190869047Y-52442319D02*
X190964285Y-52489938D01*
X190964285Y-52489938D02*
X191011904Y-52537557D01*
X191011904Y-52537557D02*
X191059523Y-52632795D01*
X191059523Y-52632795D02*
X191059523Y-52728033D01*
X191059523Y-52728033D02*
X191011904Y-52870890D01*
X191011904Y-52870890D02*
X190440476Y-53442319D01*
X190440476Y-53442319D02*
X191059523Y-53442319D01*
X209444643Y-98304819D02*
X209444643Y-97304819D01*
X209444643Y-97304819D02*
X210016071Y-98304819D01*
X210016071Y-98304819D02*
X210016071Y-97304819D01*
X210349405Y-97304819D02*
X210920833Y-97304819D01*
X210635119Y-98304819D02*
X210635119Y-97304819D01*
X211825595Y-98209580D02*
X211777976Y-98257200D01*
X211777976Y-98257200D02*
X211635119Y-98304819D01*
X211635119Y-98304819D02*
X211539881Y-98304819D01*
X211539881Y-98304819D02*
X211397024Y-98257200D01*
X211397024Y-98257200D02*
X211301786Y-98161961D01*
X211301786Y-98161961D02*
X211254167Y-98066723D01*
X211254167Y-98066723D02*
X211206548Y-97876247D01*
X211206548Y-97876247D02*
X211206548Y-97733390D01*
X211206548Y-97733390D02*
X211254167Y-97542914D01*
X211254167Y-97542914D02*
X211301786Y-97447676D01*
X211301786Y-97447676D02*
X211397024Y-97352438D01*
X211397024Y-97352438D02*
X211539881Y-97304819D01*
X211539881Y-97304819D02*
X211635119Y-97304819D01*
X211635119Y-97304819D02*
X211777976Y-97352438D01*
X211777976Y-97352438D02*
X211825595Y-97400057D01*
X212682738Y-97638152D02*
X212682738Y-98304819D01*
X212444643Y-97257200D02*
X212206548Y-97971485D01*
X212206548Y-97971485D02*
X212825595Y-97971485D01*
X234428095Y-55844819D02*
X234428095Y-56654342D01*
X234428095Y-56654342D02*
X234475714Y-56749580D01*
X234475714Y-56749580D02*
X234523333Y-56797200D01*
X234523333Y-56797200D02*
X234618571Y-56844819D01*
X234618571Y-56844819D02*
X234809047Y-56844819D01*
X234809047Y-56844819D02*
X234904285Y-56797200D01*
X234904285Y-56797200D02*
X234951904Y-56749580D01*
X234951904Y-56749580D02*
X234999523Y-56654342D01*
X234999523Y-56654342D02*
X234999523Y-55844819D01*
X235380476Y-55844819D02*
X235999523Y-55844819D01*
X235999523Y-55844819D02*
X235666190Y-56225771D01*
X235666190Y-56225771D02*
X235809047Y-56225771D01*
X235809047Y-56225771D02*
X235904285Y-56273390D01*
X235904285Y-56273390D02*
X235951904Y-56321009D01*
X235951904Y-56321009D02*
X235999523Y-56416247D01*
X235999523Y-56416247D02*
X235999523Y-56654342D01*
X235999523Y-56654342D02*
X235951904Y-56749580D01*
X235951904Y-56749580D02*
X235904285Y-56797200D01*
X235904285Y-56797200D02*
X235809047Y-56844819D01*
X235809047Y-56844819D02*
X235523333Y-56844819D01*
X235523333Y-56844819D02*
X235428095Y-56797200D01*
X235428095Y-56797200D02*
X235380476Y-56749580D01*
X150813095Y-48029819D02*
X150813095Y-48839342D01*
X150813095Y-48839342D02*
X150860714Y-48934580D01*
X150860714Y-48934580D02*
X150908333Y-48982200D01*
X150908333Y-48982200D02*
X151003571Y-49029819D01*
X151003571Y-49029819D02*
X151194047Y-49029819D01*
X151194047Y-49029819D02*
X151289285Y-48982200D01*
X151289285Y-48982200D02*
X151336904Y-48934580D01*
X151336904Y-48934580D02*
X151384523Y-48839342D01*
X151384523Y-48839342D02*
X151384523Y-48029819D01*
X152384523Y-49029819D02*
X151813095Y-49029819D01*
X152098809Y-49029819D02*
X152098809Y-48029819D01*
X152098809Y-48029819D02*
X152003571Y-48172676D01*
X152003571Y-48172676D02*
X151908333Y-48267914D01*
X151908333Y-48267914D02*
X151813095Y-48315533D01*
X266992261Y-82804819D02*
X266658928Y-82328628D01*
X266420833Y-82804819D02*
X266420833Y-81804819D01*
X266420833Y-81804819D02*
X266801785Y-81804819D01*
X266801785Y-81804819D02*
X266897023Y-81852438D01*
X266897023Y-81852438D02*
X266944642Y-81900057D01*
X266944642Y-81900057D02*
X266992261Y-81995295D01*
X266992261Y-81995295D02*
X266992261Y-82138152D01*
X266992261Y-82138152D02*
X266944642Y-82233390D01*
X266944642Y-82233390D02*
X266897023Y-82281009D01*
X266897023Y-82281009D02*
X266801785Y-82328628D01*
X266801785Y-82328628D02*
X266420833Y-82328628D01*
X267182738Y-82900057D02*
X267944642Y-82900057D01*
X268135119Y-82757200D02*
X268230357Y-82804819D01*
X268230357Y-82804819D02*
X268420833Y-82804819D01*
X268420833Y-82804819D02*
X268516071Y-82757200D01*
X268516071Y-82757200D02*
X268563690Y-82661961D01*
X268563690Y-82661961D02*
X268563690Y-82614342D01*
X268563690Y-82614342D02*
X268516071Y-82519104D01*
X268516071Y-82519104D02*
X268420833Y-82471485D01*
X268420833Y-82471485D02*
X268277976Y-82471485D01*
X268277976Y-82471485D02*
X268182738Y-82423866D01*
X268182738Y-82423866D02*
X268135119Y-82328628D01*
X268135119Y-82328628D02*
X268135119Y-82281009D01*
X268135119Y-82281009D02*
X268182738Y-82185771D01*
X268182738Y-82185771D02*
X268277976Y-82138152D01*
X268277976Y-82138152D02*
X268420833Y-82138152D01*
X268420833Y-82138152D02*
X268516071Y-82185771D01*
X268992262Y-82804819D02*
X268992262Y-81804819D01*
X269420833Y-82804819D02*
X269420833Y-82281009D01*
X269420833Y-82281009D02*
X269373214Y-82185771D01*
X269373214Y-82185771D02*
X269277976Y-82138152D01*
X269277976Y-82138152D02*
X269135119Y-82138152D01*
X269135119Y-82138152D02*
X269039881Y-82185771D01*
X269039881Y-82185771D02*
X268992262Y-82233390D01*
X270325595Y-82138152D02*
X270325595Y-82804819D01*
X269897024Y-82138152D02*
X269897024Y-82661961D01*
X269897024Y-82661961D02*
X269944643Y-82757200D01*
X269944643Y-82757200D02*
X270039881Y-82804819D01*
X270039881Y-82804819D02*
X270182738Y-82804819D01*
X270182738Y-82804819D02*
X270277976Y-82757200D01*
X270277976Y-82757200D02*
X270325595Y-82709580D01*
X270801786Y-82138152D02*
X270801786Y-82804819D01*
X270801786Y-82233390D02*
X270849405Y-82185771D01*
X270849405Y-82185771D02*
X270944643Y-82138152D01*
X270944643Y-82138152D02*
X271087500Y-82138152D01*
X271087500Y-82138152D02*
X271182738Y-82185771D01*
X271182738Y-82185771D02*
X271230357Y-82281009D01*
X271230357Y-82281009D02*
X271230357Y-82804819D01*
X271563691Y-82138152D02*
X271944643Y-82138152D01*
X271706548Y-81804819D02*
X271706548Y-82661961D01*
X271706548Y-82661961D02*
X271754167Y-82757200D01*
X271754167Y-82757200D02*
X271849405Y-82804819D01*
X271849405Y-82804819D02*
X271944643Y-82804819D01*
X272801786Y-82804819D02*
X272230358Y-82804819D01*
X272516072Y-82804819D02*
X272516072Y-81804819D01*
X272516072Y-81804819D02*
X272420834Y-81947676D01*
X272420834Y-81947676D02*
X272325596Y-82042914D01*
X272325596Y-82042914D02*
X272230358Y-82090533D01*
X149883333Y-129179580D02*
X149835714Y-129227200D01*
X149835714Y-129227200D02*
X149692857Y-129274819D01*
X149692857Y-129274819D02*
X149597619Y-129274819D01*
X149597619Y-129274819D02*
X149454762Y-129227200D01*
X149454762Y-129227200D02*
X149359524Y-129131961D01*
X149359524Y-129131961D02*
X149311905Y-129036723D01*
X149311905Y-129036723D02*
X149264286Y-128846247D01*
X149264286Y-128846247D02*
X149264286Y-128703390D01*
X149264286Y-128703390D02*
X149311905Y-128512914D01*
X149311905Y-128512914D02*
X149359524Y-128417676D01*
X149359524Y-128417676D02*
X149454762Y-128322438D01*
X149454762Y-128322438D02*
X149597619Y-128274819D01*
X149597619Y-128274819D02*
X149692857Y-128274819D01*
X149692857Y-128274819D02*
X149835714Y-128322438D01*
X149835714Y-128322438D02*
X149883333Y-128370057D01*
X150264286Y-128370057D02*
X150311905Y-128322438D01*
X150311905Y-128322438D02*
X150407143Y-128274819D01*
X150407143Y-128274819D02*
X150645238Y-128274819D01*
X150645238Y-128274819D02*
X150740476Y-128322438D01*
X150740476Y-128322438D02*
X150788095Y-128370057D01*
X150788095Y-128370057D02*
X150835714Y-128465295D01*
X150835714Y-128465295D02*
X150835714Y-128560533D01*
X150835714Y-128560533D02*
X150788095Y-128703390D01*
X150788095Y-128703390D02*
X150216667Y-129274819D01*
X150216667Y-129274819D02*
X150835714Y-129274819D01*
X265864761Y-61450057D02*
X265769523Y-61402438D01*
X265769523Y-61402438D02*
X265674285Y-61307200D01*
X265674285Y-61307200D02*
X265531428Y-61164342D01*
X265531428Y-61164342D02*
X265436190Y-61116723D01*
X265436190Y-61116723D02*
X265340952Y-61116723D01*
X265388571Y-61354819D02*
X265293333Y-61307200D01*
X265293333Y-61307200D02*
X265198095Y-61211961D01*
X265198095Y-61211961D02*
X265150476Y-61021485D01*
X265150476Y-61021485D02*
X265150476Y-60688152D01*
X265150476Y-60688152D02*
X265198095Y-60497676D01*
X265198095Y-60497676D02*
X265293333Y-60402438D01*
X265293333Y-60402438D02*
X265388571Y-60354819D01*
X265388571Y-60354819D02*
X265579047Y-60354819D01*
X265579047Y-60354819D02*
X265674285Y-60402438D01*
X265674285Y-60402438D02*
X265769523Y-60497676D01*
X265769523Y-60497676D02*
X265817142Y-60688152D01*
X265817142Y-60688152D02*
X265817142Y-61021485D01*
X265817142Y-61021485D02*
X265769523Y-61211961D01*
X265769523Y-61211961D02*
X265674285Y-61307200D01*
X265674285Y-61307200D02*
X265579047Y-61354819D01*
X265579047Y-61354819D02*
X265388571Y-61354819D01*
X266769523Y-61354819D02*
X266198095Y-61354819D01*
X266483809Y-61354819D02*
X266483809Y-60354819D01*
X266483809Y-60354819D02*
X266388571Y-60497676D01*
X266388571Y-60497676D02*
X266293333Y-60592914D01*
X266293333Y-60592914D02*
X266198095Y-60640533D01*
X123383333Y-128679580D02*
X123335714Y-128727200D01*
X123335714Y-128727200D02*
X123192857Y-128774819D01*
X123192857Y-128774819D02*
X123097619Y-128774819D01*
X123097619Y-128774819D02*
X122954762Y-128727200D01*
X122954762Y-128727200D02*
X122859524Y-128631961D01*
X122859524Y-128631961D02*
X122811905Y-128536723D01*
X122811905Y-128536723D02*
X122764286Y-128346247D01*
X122764286Y-128346247D02*
X122764286Y-128203390D01*
X122764286Y-128203390D02*
X122811905Y-128012914D01*
X122811905Y-128012914D02*
X122859524Y-127917676D01*
X122859524Y-127917676D02*
X122954762Y-127822438D01*
X122954762Y-127822438D02*
X123097619Y-127774819D01*
X123097619Y-127774819D02*
X123192857Y-127774819D01*
X123192857Y-127774819D02*
X123335714Y-127822438D01*
X123335714Y-127822438D02*
X123383333Y-127870057D01*
X124335714Y-128774819D02*
X123764286Y-128774819D01*
X124050000Y-128774819D02*
X124050000Y-127774819D01*
X124050000Y-127774819D02*
X123954762Y-127917676D01*
X123954762Y-127917676D02*
X123859524Y-128012914D01*
X123859524Y-128012914D02*
X123764286Y-128060533D01*
%TO.C,D4*%
D46*
X228920000Y-116500000D02*
X229570000Y-116500000D01*
X230170000Y-115380000D02*
X230170000Y-117620000D01*
X230290000Y-115380000D02*
X230290000Y-117620000D01*
X230410000Y-115380000D02*
X230410000Y-117620000D01*
X234460000Y-116500000D02*
X233810000Y-116500000D01*
X229570000Y-115380000D02*
X233810000Y-115380000D01*
X233810000Y-117620000D01*
X229570000Y-117620000D01*
X229570000Y-115380000D01*
%TO.C,R_fb2*%
X164360436Y-75265000D02*
X164814564Y-75265000D01*
X164360436Y-76735000D02*
X164814564Y-76735000D01*
%TO.C,NTC3*%
X202360436Y-114765000D02*
X202814564Y-114765000D01*
X202360436Y-116235000D02*
X202814564Y-116235000D01*
%TO.C,NTC1*%
X167860436Y-115765000D02*
X168314564Y-115765000D01*
X167860436Y-117235000D02*
X168314564Y-117235000D01*
%TO.C,R_nrst2*%
X199860436Y-84765000D02*
X200314564Y-84765000D01*
X199860436Y-86235000D02*
X200314564Y-86235000D01*
%TO.C,D2*%
X147070000Y-89380000D02*
X151310000Y-89380000D01*
X151310000Y-91620000D01*
X147070000Y-91620000D01*
X147070000Y-89380000D01*
X151960000Y-90500000D02*
X151310000Y-90500000D01*
X147910000Y-89380000D02*
X147910000Y-91620000D01*
X147790000Y-89380000D02*
X147790000Y-91620000D01*
X147670000Y-89380000D02*
X147670000Y-91620000D01*
X146420000Y-90500000D02*
X147070000Y-90500000D01*
%TO.C,J2*%
X270380000Y-110730000D02*
X270380000Y-113380000D01*
X267620000Y-113380000D02*
X270380000Y-113380000D01*
X267620000Y-110730000D02*
X270380000Y-110730000D01*
X267620000Y-110730000D02*
X267620000Y-113380000D01*
X267620000Y-109460000D02*
X267620000Y-108080000D01*
X267620000Y-108080000D02*
X269000000Y-108080000D01*
%TO.C,D1*%
X110070000Y-84380000D02*
X114310000Y-84380000D01*
X114310000Y-86620000D01*
X110070000Y-86620000D01*
X110070000Y-84380000D01*
X114960000Y-85500000D02*
X114310000Y-85500000D01*
X110910000Y-84380000D02*
X110910000Y-86620000D01*
X110790000Y-84380000D02*
X110790000Y-86620000D01*
X110670000Y-84380000D02*
X110670000Y-86620000D01*
X109420000Y-85500000D02*
X110070000Y-85500000D01*
%TO.C,R_feedback1*%
X188360436Y-100235000D02*
X188814564Y-100235000D01*
X188360436Y-98765000D02*
X188814564Y-98765000D01*
%TO.C,U4*%
X123025000Y-103835000D02*
X122685000Y-103365000D01*
X123365000Y-103365000D01*
X123025000Y-103835000D01*
G36*
X123025000Y-103835000D02*
G01*
X122685000Y-103365000D01*
X123365000Y-103365000D01*
X123025000Y-103835000D01*
G37*
X131175000Y-110425000D02*
X124755000Y-110425000D01*
X131175000Y-103525000D02*
X124755000Y-103525000D01*
X124755000Y-110425000D02*
X124755000Y-110155000D01*
X124755000Y-103525000D02*
X124755000Y-103795000D01*
%TO.C,NTC2*%
X185860436Y-121735000D02*
X186314564Y-121735000D01*
X185860436Y-120265000D02*
X186314564Y-120265000D01*
%TO.C,R_nrst1*%
X177860436Y-86235000D02*
X178314564Y-86235000D01*
X177860436Y-84765000D02*
X178314564Y-84765000D01*
%TO.C,R_gate1*%
X238360436Y-95235000D02*
X238814564Y-95235000D01*
X238360436Y-93765000D02*
X238814564Y-93765000D01*
%TO.C,D3*%
X173570000Y-135380000D02*
X177810000Y-135380000D01*
X177810000Y-137620000D01*
X173570000Y-137620000D01*
X173570000Y-135380000D01*
X178460000Y-136500000D02*
X177810000Y-136500000D01*
X174410000Y-135380000D02*
X174410000Y-137620000D01*
X174290000Y-135380000D02*
X174290000Y-137620000D01*
X174170000Y-135380000D02*
X174170000Y-137620000D01*
X172920000Y-136500000D02*
X173570000Y-136500000D01*
%TO.C,J1*%
X109380000Y-53270000D02*
X109380000Y-55920000D01*
X106620000Y-55920000D02*
X109380000Y-55920000D01*
X106620000Y-53270000D02*
X109380000Y-53270000D01*
X106620000Y-53270000D02*
X106620000Y-55920000D01*
X106620000Y-52000000D02*
X106620000Y-50620000D01*
X106620000Y-50620000D02*
X108000000Y-50620000D01*
%TO.C,R_fb1*%
X136860436Y-76735000D02*
X137314564Y-76735000D01*
X136860436Y-75265000D02*
X137314564Y-75265000D01*
%TO.C,F1*%
X109104264Y-71151832D02*
X111876768Y-71151832D01*
X109104264Y-67731832D02*
X111876768Y-67731832D01*
%TO.C,U2*%
X186000000Y-55677500D02*
X185660000Y-55207500D01*
X186340000Y-55207500D01*
X186000000Y-55677500D01*
G36*
X186000000Y-55677500D02*
G01*
X185660000Y-55207500D01*
X186340000Y-55207500D01*
X186000000Y-55677500D01*
G37*
X193860000Y-62447500D02*
X193410000Y-62447500D01*
X193860000Y-61997500D02*
X193860000Y-62447500D01*
X193860000Y-55227500D02*
X193860000Y-55677500D01*
X193410000Y-55227500D02*
X193860000Y-55227500D01*
X187090000Y-62447500D02*
X186640000Y-62447500D01*
X186640000Y-62447500D02*
X186640000Y-61997500D01*
X186640000Y-55677500D02*
X186640000Y-55227500D01*
X186640000Y-55227500D02*
X187090000Y-55227500D01*
%TO.C,NTC4*%
X210860436Y-100235000D02*
X211314564Y-100235000D01*
X210860436Y-98765000D02*
X211314564Y-98765000D01*
%TO.C,U3*%
X236190000Y-57390000D02*
G75*
G02*
X234190000Y-57390000I-1000000J0D01*
G01*
X237840000Y-77830000D02*
X237840000Y-57390000D01*
X237840000Y-57390000D02*
X236190000Y-57390000D01*
X234190000Y-57390000D02*
X232540000Y-57390000D01*
X232540000Y-77830000D02*
X237840000Y-77830000D01*
X232540000Y-57390000D02*
X232540000Y-77830000D01*
%TO.C,U1*%
X143925000Y-51015000D02*
X143585000Y-50545000D01*
X144265000Y-50545000D01*
X143925000Y-51015000D01*
G36*
X143925000Y-51015000D02*
G01*
X143585000Y-50545000D01*
X144265000Y-50545000D01*
X143925000Y-51015000D01*
G37*
X148115000Y-60425000D02*
X146750000Y-60425000D01*
X148115000Y-50025000D02*
X146750000Y-50025000D01*
X146750000Y-60425000D02*
X146750000Y-59475000D01*
X146750000Y-50025000D02*
X146750000Y-50975000D01*
%TO.C,R_shunt1*%
X269360436Y-84735000D02*
X269814564Y-84735000D01*
X269360436Y-83265000D02*
X269814564Y-83265000D01*
%TO.C,C2*%
X149788748Y-131235000D02*
X150311252Y-131235000D01*
X149788748Y-129765000D02*
X150311252Y-129765000D01*
%TO.C,Q1*%
X271070000Y-66360000D02*
X260850000Y-66360000D01*
X271070000Y-61740000D02*
X271070000Y-66360000D01*
X267810000Y-61740000D02*
X267810000Y-63120000D01*
X264110000Y-61740000D02*
X264110000Y-63120000D01*
X260850000Y-66360000D02*
X260850000Y-61740000D01*
X260850000Y-63120000D02*
X271070000Y-63120000D01*
X260850000Y-61740000D02*
X271070000Y-61740000D01*
%TO.C,C1*%
X123288748Y-130735000D02*
X123811252Y-130735000D01*
X123288748Y-129265000D02*
X123811252Y-129265000D01*
%TD*%
D47*
X92000000Y-40000000D02*
X282000000Y-40000000D01*
X282000000Y-148500000D01*
X92000000Y-148500000D01*
X92000000Y-40000000D01*
M02*
